<svg width="48" height="48" viewBox="0 0 48 48" fill="none" xmlns="http://www.w3.org/2000/svg">
<rect width="48" height="48" fill="#F5F5F5"/>
<g id="Tejamkor yechim">
<rect width="1440" height="4225" transform="translate(-174 -1528)" fill="white"/>
<g id="Group 36">
<path id="Rectangle 31" d="M-24 -108C-24 -122.359 -12.3594 -134 2 -134H702C716.359 -134 728 -122.359 728 -108V223C728 237.359 716.359 249 702 249H1.99999C-12.3594 249 -24 237.359 -24 223V-108Z" fill="#FCFCFC"/>
<g id="Group 32">
<g id="bolt_FILL0_wght400_GRAD0_opsz48 (1) 1">
<path id="Vector" d="M19.9504 42L22.0004 27.9H14.7004C14.3337 27.9 14.0671 27.7333 13.9004 27.4C13.7337 27.0667 13.7337 26.75 13.9004 26.45L26.1504 6H28.2004L26.1504 20.05H33.3504C33.7171 20.05 33.9921 20.2167 34.1754 20.55C34.3587 20.8833 34.3671 21.2 34.2004 21.5L22.0004 42H19.9504Z" fill="#FFDC00"/>
</g>
</g>
</g>
</g>
</svg>
