<svg width="48" height="48" viewBox="0 0 48 48" fill="none" xmlns="http://www.w3.org/2000/svg">
<rect width="48" height="48" fill="#F5F5F5"/>
<g id="Tejamkor yechim">
<rect width="1440" height="4225" transform="translate(-370 -1528)" fill="white"/>
<g id="Group 36">
<path id="Rectangle 31" d="M-220 -108C-220 -122.359 -208.359 -134 -194 -134H506C520.359 -134 532 -122.359 532 -108V223C532 237.359 520.359 249 506 249H-194C-208.359 249 -220 237.359 -220 223V-108Z" fill="#FCFCFC"/>
<g id="Group 33">
<g id="monitoring_FILL0_wght400_GRAD0_opsz48 1">
<path id="Vector" d="M6 42V38.2L9 35.2V42H6ZM14.25 42V30.2L17.25 27.2V42H14.25ZM22.5 42V27.2L25.5 30.25V42H22.5ZM30.75 42V30.25L33.75 27.25V42H30.75ZM39 42V22.2L42 19.2V42H39ZM6 30.2V25.95L20 12.05L28 20.05L42 6V10.25L28 24.3L20 16.3L6 30.2Z" fill="#FFDC00"/>
</g>
</g>
</g>
</g>
</svg>
