<svg width="135" height="107" viewBox="0 0 135 107" fill="none" xmlns="http://www.w3.org/2000/svg">
<rect width="135" height="107" fill="#F5F5F5"/>
<g id="Tejamkor yechim">
<rect width="1440" height="4225" transform="translate(-743 -1646)" fill="white"/>
<g id="Group 36">
<path id="Rectangle 31" d="M-593 -226C-593 -240.359 -581.359 -252 -567 -252H133C147.359 -252 159 -240.359 159 -226V105C159 119.359 147.359 131 133 131H-567C-581.359 131 -593 119.359 -593 105V-226Z" fill="#FCFCFC"/>
<g id="undraw_calculator_re_alsc (1) 1" clip-path="url(#clip0_0_1)">
<path id="Vector" d="M57.2431 102.8C57.7372 102.831 58.0103 102.219 57.6365 101.863L57.5993 101.716C57.6042 101.704 57.6091 101.692 57.614 101.681C58.1137 100.494 59.8071 100.502 60.3026 101.691C60.7423 102.745 61.3021 103.802 61.44 104.917C61.5018 105.409 61.474 105.91 61.3643 106.393C62.3946 104.152 62.9368 101.705 62.9368 99.2435C62.9368 98.6251 62.9028 98.0067 62.8333 97.3899C62.7762 96.8853 62.6974 96.3839 62.5954 95.887C62.044 93.2011 60.8499 90.643 59.1275 88.5063C58.2995 88.0556 57.6091 87.351 57.192 86.5065C57.0422 86.2019 56.9248 85.8743 56.8691 85.5405C56.9634 85.5528 57.2244 84.1237 57.1534 84.036C57.2847 83.8376 57.5197 83.739 57.6631 83.5453C58.3764 82.5823 59.3591 82.7505 59.8721 84.0591C60.968 84.6099 60.9786 85.5234 60.3062 86.4019C59.8784 86.9609 59.8196 87.7172 59.4442 88.3155C59.4828 88.3648 59.523 88.4125 59.5616 88.4617C60.2698 89.3662 60.8823 90.3385 61.3986 91.3598C61.2527 90.2247 61.4681 88.8571 61.8354 87.9756C62.2535 86.9712 63.0372 86.1252 63.7273 85.2569C64.5563 84.2139 66.2561 84.6691 66.4021 85.9913C66.4035 86.0041 66.4049 86.0169 66.4063 86.0297C66.3038 86.0872 66.2033 86.1484 66.1053 86.213C65.5457 86.5815 65.7391 87.4453 66.4021 87.5472L66.4171 87.5495C66.38 87.9171 66.3167 88.2817 66.224 88.6401C67.1093 92.0497 65.198 93.2915 62.4688 93.3473C62.4085 93.378 62.3498 93.4088 62.2896 93.438C62.5661 94.2133 62.787 95.0086 62.9507 95.8147C63.0975 96.5269 63.1994 97.2468 63.2566 97.9698C63.3276 98.882 63.3215 99.7989 63.2442 100.71L63.2489 100.677C63.445 99.6743 63.9919 98.7374 64.7859 98.0883C65.9687 97.1207 67.6398 96.7644 68.9158 95.9866C69.53 95.6122 70.3172 96.0961 70.21 96.8052L70.2047 96.8392C70.0147 96.9161 69.8294 97.0053 69.6502 97.1053C69.5477 97.1629 69.4473 97.2241 69.3492 97.2887C68.7896 97.6572 68.983 98.5209 69.646 98.6228L69.661 98.6251C69.6718 98.6267 69.6811 98.6282 69.6919 98.6298C69.366 99.4004 68.9118 100.116 68.3434 100.733C67.7898 103.709 65.4122 103.991 62.8689 103.125H62.8673C62.5893 104.331 62.183 105.509 61.6609 106.632H57.3511C57.3356 106.584 57.3217 106.535 57.3078 106.487C57.7064 106.512 58.108 106.489 58.5004 106.417C58.1806 106.026 57.8609 105.632 57.5411 105.241C57.5334 105.234 57.5272 105.226 57.521 105.218C57.3588 105.018 57.1951 104.82 57.0329 104.62L57.0328 104.62C57.0226 104.006 57.0965 103.394 57.243 102.8L57.2431 102.8Z" fill="#F2F2F2"/>
<path id="Vector_2" d="M0 106.717C0 106.874 0.126764 107 0.284619 107H96.7368C96.8947 107 97.0214 106.874 97.0214 106.717C97.0214 106.559 96.8947 106.433 96.7368 106.433H0.284619C0.126764 106.433 0 106.559 0 106.717Z" fill="#CCCCCC"/>
<path id="Vector_3" d="M130.283 106.937H80.8833C78.2822 106.937 76.166 104.829 76.166 102.239V4.69774C76.166 2.10745 78.2822 0 80.8833 0L130.283 0C132.884 0 135 2.10745 135 4.69774V102.239C135 104.829 132.884 106.937 130.283 106.937ZM80.8833 0.476333C78.5422 0.476333 76.6443 2.36627 76.6443 4.69763V102.239C76.6443 104.571 78.5422 106.46 80.8834 106.46H130.283C132.624 106.46 134.522 104.571 134.522 102.239V35.8929C134.522 16.3329 118.599 0.476333 98.9571 0.476333L80.8833 0.476333Z" fill="#E6E6E6"/>
<g id="Group">
<path id="Vector_4" d="M90.197 48.1378C93.367 48.1378 95.9369 45.5787 95.9369 42.4218C95.9369 39.265 93.367 36.7058 90.197 36.7058C87.0269 36.7058 84.457 39.265 84.457 42.4218C84.457 45.5787 87.0269 48.1378 90.197 48.1378Z" fill="#E6E6E6"/>
<path id="Vector_5" d="M120.969 48.1378C124.139 48.1378 126.709 45.5787 126.709 42.4218C126.709 39.265 124.139 36.7058 120.969 36.7058C117.799 36.7058 115.229 39.265 115.229 42.4218C115.229 45.5787 117.799 48.1378 120.969 48.1378Z" fill="#E6E6E6"/>
<path id="Vector_6" d="M105.583 48.1378C108.753 48.1378 111.323 45.5787 111.323 42.4218C111.323 39.265 108.753 36.7058 105.583 36.7058C102.413 36.7058 99.8428 39.265 99.8428 42.4218C99.8428 45.5787 102.413 48.1378 105.583 48.1378Z" fill="#E6E6E6"/>
</g>
<path id="Vector_7" d="M90.197 64.5714C93.367 64.5714 95.9369 62.0123 95.9369 58.8554C95.9369 55.6985 93.367 53.1394 90.197 53.1394C87.0269 53.1394 84.457 55.6985 84.457 58.8554C84.457 62.0123 87.0269 64.5714 90.197 64.5714Z" fill="#E6E6E6"/>
<path id="Vector_8" d="M120.969 64.5714C124.139 64.5714 126.709 62.0123 126.709 58.8554C126.709 55.6985 124.139 53.1394 120.969 53.1394C117.799 53.1394 115.229 55.6985 115.229 58.8554C115.229 62.0123 117.799 64.5714 120.969 64.5714Z" fill="#E6E6E6"/>
<path id="Vector_9" d="M105.583 64.5714C108.753 64.5714 111.323 62.0123 111.323 58.8554C111.323 55.6985 108.753 53.1394 105.583 53.1394C102.413 53.1394 99.8428 55.6985 99.8428 58.8554C99.8428 62.0123 102.413 64.5714 105.583 64.5714Z" fill="#E6E6E6"/>
<path id="Vector_10" d="M90.197 81.0048C93.367 81.0048 95.9369 78.4456 95.9369 75.2888C95.9369 72.1319 93.367 69.5728 90.197 69.5728C87.0269 69.5728 84.457 72.1319 84.457 75.2888C84.457 78.4456 87.0269 81.0048 90.197 81.0048Z" fill="#E6E6E6"/>
<path id="Vector_11" d="M120.851 97.4103C124.021 97.4103 126.591 94.8511 126.591 91.6943C126.591 88.5374 124.021 85.9783 120.851 85.9783C117.681 85.9783 115.111 88.5374 115.111 91.6943C115.111 94.8511 117.681 97.4103 120.851 97.4103Z" fill="#E6E6E6"/>
<path id="Vector_12" d="M98.0118 97.4103C105.475 97.4103 111.524 94.8511 111.524 91.6943C111.524 88.5374 105.475 85.9783 98.0118 85.9783C90.5489 85.9783 84.499 88.5374 84.499 91.6943C84.499 94.8511 90.5489 97.4103 98.0118 97.4103Z" fill="#E6E6E6"/>
<path id="Vector_13" d="M120.969 81.0048C124.139 81.0048 126.709 78.4456 126.709 75.2888C126.709 72.1319 124.139 69.5728 120.969 69.5728C117.799 69.5728 115.229 72.1319 115.229 75.2888C115.229 78.4456 117.799 81.0048 120.969 81.0048Z" fill="#E6E6E6"/>
<path id="Vector_14" d="M105.583 81.0048C108.753 81.0048 111.323 78.4456 111.323 75.2888C111.323 72.1319 108.753 69.5728 105.583 69.5728C102.413 69.5728 99.8428 72.1319 99.8428 75.2888C99.8428 78.4456 102.413 81.0048 105.583 81.0048Z" fill="#FFDC00"/>
<path id="Vector_15" d="M106.711 6.6687L51.8146 6.6687C50.1869 6.6687 48.8633 7.98679 48.8633 9.60776V29.6898C48.8633 31.3108 50.1869 32.6289 51.8146 32.6289H106.711C108.338 32.6289 109.662 31.3108 109.662 29.6898V9.60776C109.662 7.98679 108.338 6.6687 106.711 6.6687Z" fill="white"/>
<path id="Vector_16" d="M106.711 6.6687L51.8146 6.6687C50.1869 6.6687 48.8633 7.98679 48.8633 9.60776V29.6898C48.8633 31.3108 50.1869 32.6289 51.8146 32.6289H106.711C108.338 32.6289 109.662 31.3108 109.662 29.6898V9.60776C109.662 7.98679 108.338 6.6687 106.711 6.6687ZM109.352 29.6898C109.352 31.1408 108.168 32.3198 106.711 32.3198H51.8146C50.3576 32.3198 49.1736 31.1408 49.1736 29.6898V9.60776C49.1736 8.15678 50.3576 6.97775 51.8146 6.97775L106.711 6.97775C108.168 6.97775 109.352 8.15678 109.352 9.60776V29.6898Z" fill="#3F3D56"/>
<path id="Vector_17" d="M103.658 18.8152H54.8683C54.406 18.8152 54.0312 19.1884 54.0312 19.6488C54.0312 20.1091 54.406 20.4824 54.8683 20.4824H103.658C104.12 20.4824 104.495 20.1091 104.495 19.6488C104.495 19.1884 104.12 18.8152 103.658 18.8152Z" fill="#FFDC00"/>
<g id="Group_2">
<g id="Group_3">
<path id="Vector_18" d="M16.2517 42.9702L15.7627 45.8698L20.0989 56.3739L22.4254 55.1828L20.161 45.3531L19.8355 41.6018L16.2517 42.9702Z" fill="#A0616A"/>
<path id="Vector_19" d="M21.0378 26.6575C21.0378 26.6575 18.7676 25.5623 17.0059 29.2628C15.2442 32.9632 15.4624 41.0793 15.4624 41.0793C15.4624 41.0793 14.8209 41.6875 15.2281 42.1134C15.6353 42.5393 16.0149 43.2151 15.5996 43.9941C15.3806 44.4047 14.8739 45.208 15.7037 45.4362C16.5334 45.6644 20.4147 44.5864 20.4147 44.5864C20.4147 44.5864 21.866 43.939 21.0414 43.5029C20.2168 43.0669 21.3782 40.4293 21.3782 40.4293L22.3378 32.81L21.0378 26.6575Z" fill="#FFDC00"/>
<path id="Vector_20" d="M22.8205 60.387C23.7318 60.1084 24.0884 58.6435 23.6172 57.1151C23.1459 55.5868 22.0251 54.5737 21.1138 54.8524C20.2026 55.131 19.8459 56.5959 20.3172 58.1243C20.7885 59.6526 21.9093 60.6657 22.8205 60.387Z" fill="#A0616A"/>
</g>
<g id="Group_4">
<path id="Vector_21" d="M44.3112 105.405L46.4843 104.824L45.2688 96.2007L42.0615 97.0579L44.3112 105.405Z" fill="#A0616A"/>
<path id="Vector_22" d="M51.7437 103.367C51.842 103.462 51.9764 103.819 52.0119 103.951C52.1212 104.356 51.8796 104.773 51.4723 104.882L44.7423 106.681C44.4644 106.755 44.1786 106.591 44.1041 106.314L44.0289 106.035C44.0289 106.035 43.47 105.285 43.8769 104.068C43.8769 104.068 44.9469 104.65 45.8783 103.042L46.0712 102.265L49.3218 103.518L50.8777 103.3C51.2181 103.252 51.4976 103.128 51.7437 103.367H51.7437Z" fill="#2F2E41"/>
</g>
<g id="Group_5">
<path id="Vector_23" d="M23.0102 105.355L25.2603 105.355L26.3306 96.7126L23.0098 96.7129L23.0102 105.355Z" fill="#A0616A"/>
<path id="Vector_24" d="M30.7186 105.305C30.7887 105.422 30.8257 105.801 30.8257 105.938C30.8257 106.358 30.4838 106.698 30.062 106.698H23.0939C22.8062 106.698 22.573 106.466 22.573 106.18V105.891C22.573 105.891 22.2282 105.022 22.9379 103.952C22.9379 103.952 23.82 104.79 25.138 103.478L25.5267 102.777L28.3401 104.826L29.8995 105.017C30.2407 105.059 30.5432 105.01 30.7186 105.305Z" fill="#2F2E41"/>
</g>
<path id="Vector_25" d="M37.9842 53.8743L43.9008 79.2705L46.7571 99.7907L42.2686 100.4L29.8234 65.4549L26.9671 100.4L21.8666 100.807C21.8666 100.807 17.7862 59.3599 19.6224 54.2806L37.9842 53.8743Z" fill="#2F2E41"/>
<g id="Group_6">
<path id="Vector_26" d="M45.0264 23.8438L47.0678 21.7196L49.4121 10.6051L46.8157 10.2876L43.1388 19.6844L41.29 22.9689L45.0264 23.8438Z" fill="#A0616A"/>
<path id="Vector_27" d="M31.8584 34.6544C31.8584 34.6544 33.7689 38.1624 37.315 36.0885C40.861 34.0146 44.6114 25.8493 44.6114 25.8493C44.6114 25.8493 45.3602 23.7736 46.1436 23.3619C46.5564 23.145 47.6188 22.911 47.0614 22.2577C46.5041 21.6044 42.4959 20.1763 42.4959 20.1763C42.4959 20.1763 40.9301 19.8991 41.3659 20.7214C41.8017 21.5437 40.3704 21.0343 40.5149 21.9046C40.6594 22.7748 39.3521 23.0747 39.3521 23.0747L31.8584 34.6544H31.8584Z" fill="#FFDC00"/>
<path id="Vector_28" d="M50.2198 9.03529C50.693 7.5075 50.338 6.0422 49.4271 5.76246C48.5162 5.48272 47.3942 6.49447 46.9211 8.02226C46.448 9.55005 46.8029 11.0153 47.7138 11.2951C48.6247 11.5748 49.7467 10.5631 50.2198 9.03529Z" fill="#A0616A"/>
</g>
<path id="Vector_29" d="M32.1118 22.5002H26.5258L26.2997 24.2541C26.2997 24.2541 19.2549 26.1834 19.431 27.2357C19.6071 28.2881 20.6638 45.8269 20.6638 45.8269L19.7832 54.5963C19.7832 54.5963 35.6342 61.261 38.0999 53.3686L36.8671 44.2484C36.8671 44.2484 39.8611 28.6388 39.1567 27.9373C38.4522 27.2357 32.6401 24.4295 32.6401 24.4295L32.1118 22.5002L32.1118 22.5002Z" fill="#FFDC00"/>
<path id="Vector_30" d="M28.8673 22.5222C31.6364 22.5222 33.8812 20.2868 33.8812 17.5293C33.8812 14.7718 31.6364 12.5364 28.8673 12.5364C26.0983 12.5364 23.8535 14.7718 23.8535 17.5293C23.8535 20.2868 26.0983 22.5222 28.8673 22.5222Z" fill="#A0616A"/>
<path id="Vector_31" d="M32.5807 15.4753C33.2213 15.4214 33.8619 15.3675 34.5025 15.3136C34.2823 15.213 34.053 15.1053 33.9063 14.9133C33.7596 14.7214 33.7292 14.418 33.9064 14.2535C34.1135 14.0613 34.4565 14.1632 34.6829 14.3325C34.5582 13.6845 34.1698 13.0907 33.6249 12.7153C32.9593 12.2568 31.3127 12.8036 30.5103 12.6983C29.5844 12.5768 29.4688 11.7907 28.543 11.6693C28.194 11.6235 27.8013 11.589 27.5269 11.8085C27.2225 12.052 27.1883 12.5123 26.9198 12.7945C26.5364 13.1974 25.8793 13.0786 25.3337 13.1919C24.5609 13.3525 23.9783 14.0273 23.7092 14.7664C23.4402 15.5056 23.4303 16.3094 23.4234 17.0956C23.4157 17.9766 23.4129 18.9966 24.0528 19.6051C24.4427 19.9758 25.5046 21.2478 25.6194 21.7723C25.7009 22.1448 29.0236 22.5985 29.7437 22.5778L32.1982 21.7723C32.4395 20.7145 32.0404 18.622 31.4669 17.6998C31.6558 17.9482 32.5292 18.6961 32.6627 18.4143C32.7962 18.1325 32.7357 17.2493 32.9019 16.9853C33.1117 16.6521 32.1872 15.5085 32.5807 15.4753V15.4753Z" fill="#2F2E41"/>
</g>
</g>
</g>
</g>
<defs>
<clipPath id="clip0_0_1">
<rect width="135" height="107" fill="white"/>
</clipPath>
</defs>
</svg>
