<svg width="86" height="99" viewBox="0 0 86 99" fill="none" xmlns="http://www.w3.org/2000/svg">
<rect width="86" height="99" fill="#F5F5F5"/>
<g id="Tejamkor yechim">
<rect width="1440" height="4225" transform="translate(-403 -1175)" fill="white"/>
<g id="Group 22">
<g id="Group 4">
<rect id="Rectangle 24" x="-253" y="-166" width="363" height="289" rx="12" fill="#FCFCFC"/>
<g id="undraw_revenue_re_2bmg 1" clip-path="url(#clip0_0_1)">
<path id="Vector" d="M86 37.9932C86 38.276 85.9967 38.5584 85.99 38.8402C85.9871 39.0245 85.9814 39.2087 85.9743 39.393C85.9728 39.4458 85.9714 39.4972 85.9686 39.5501C85.9643 39.6515 85.96 39.7515 85.9557 39.85C85.9243 40.5085 85.8757 41.1622 85.81 41.8111C85.8071 41.8425 85.8043 41.874 85.8014 41.904C85.7943 41.9682 85.7886 42.0325 85.78 42.0968C85.76 42.2896 85.7386 42.4824 85.7143 42.6724C85.6986 42.8009 85.6828 42.9281 85.6657 43.0566C85.6571 43.118 85.6486 43.1794 85.6414 43.2394C85.6314 43.3066 85.6228 43.3723 85.6128 43.438C85.6086 43.4665 85.6043 43.4951 85.6 43.5251C85.5857 43.6222 85.5714 43.7208 85.5557 43.8179C85.5371 43.945 85.5171 44.0707 85.4957 44.1978C85.4757 44.3235 85.4543 44.4492 85.4314 44.5749C85.41 44.7006 85.3871 44.8263 85.3643 44.952C85.3414 45.0791 85.3171 45.2048 85.2928 45.3305C85.17 45.9532 85.0328 46.5707 84.8814 47.183C84.8214 47.4215 84.76 47.6596 84.6971 47.8972C84.5928 48.2828 84.4828 48.6665 84.3671 49.0484C84.3343 49.1541 84.3014 49.2598 84.2686 49.364C84.2314 49.484 84.1929 49.604 84.1543 49.7226C84.1157 49.8425 84.0771 49.9611 84.0371 50.0796C83.9971 50.1982 83.9571 50.3167 83.9157 50.4353C83.8757 50.5524 83.8343 50.671 83.7914 50.7881C83.75 50.9066 83.7071 51.0237 83.6643 51.1409C83.62 51.258 83.5771 51.3751 83.5328 51.4908C83.4443 51.725 83.3533 51.9569 83.26 52.1864C83.2143 52.3021 83.1671 52.4178 83.1186 52.532C82.9286 52.992 82.7295 53.4467 82.5214 53.8961C82.4757 53.9961 82.43 54.0961 82.3829 54.1946C82.3514 54.2603 82.3214 54.3246 82.29 54.3903C82.2371 54.4988 82.1857 54.606 82.1329 54.7131C82.08 54.8216 82.0257 54.9316 81.97 55.0416C81.86 55.2587 81.7481 55.4753 81.6343 55.6915C81.5214 55.9072 81.4057 56.1228 81.2871 56.3357C81.1686 56.5485 81.0486 56.7613 80.9271 56.9713C80.8657 57.077 80.8043 57.1826 80.7429 57.2869C80.4957 57.7054 80.2405 58.1192 79.9771 58.5281C79.7157 58.9352 79.4457 59.3375 79.1671 59.735C79.0286 59.9336 78.8871 60.1321 78.7443 60.3278C78.6871 60.4064 78.63 60.4835 78.5729 60.5606C78.5029 60.6577 78.43 60.7534 78.3571 60.8491C75.2611 64.9664 71.3595 68.4107 66.8897 70.9724C62.4199 73.5341 57.4755 75.1595 52.3574 75.7499C47.2393 76.3402 42.0546 75.883 37.1188 74.4062C32.1831 72.9294 27.5995 70.4637 23.6472 67.1594C23.23 66.8109 22.8205 66.4538 22.4186 66.0882C19.8396 63.7401 17.5945 61.0498 15.7458 58.0925C15.5158 57.7225 15.2901 57.3483 15.0729 56.9713C11.7395 51.2025 9.98947 44.6556 10 37.9932C10 17.0098 27.0129 6.97387e-06 48 6.97387e-06C54.3151 -0.00381977 60.5313 1.56728 66.0859 4.57106C71.6406 7.57483 76.3581 11.9164 79.8114 17.2026C79.8743 17.2983 79.9371 17.3955 80 17.4926C83.4335 22.8352 85.4642 28.9571 85.9043 35.2923C85.9686 36.1835 86.0005 37.0839 86 37.9932Z" fill="#F2F2F2"/>
<path id="Vector_2" d="M80 17.2884H27.1421C27.1041 17.2875 27.068 17.2719 27.0414 17.2449C27.0149 17.218 27 17.1818 27 17.1442C27 17.1065 27.0149 17.0704 27.0414 17.0434C27.068 17.0165 27.1041 17.0009 27.1421 17H79.8106C79.8738 17.0952 79.9369 17.1918 80 17.2884Z" fill="#CACACA"/>
<path id="Vector_3" d="M30.5 15C31.3284 15 32 14.3284 32 13.5C32 12.6716 31.3284 12 30.5 12C29.6716 12 29 12.6716 29 13.5C29 14.3284 29.6716 15 30.5 15Z" fill="#3F3D56"/>
<path id="Vector_4" d="M35.5 15C36.3284 15 37 14.3284 37 13.5C37 12.6716 36.3284 12 35.5 12C34.6716 12 34 12.6716 34 13.5C34 14.3284 34.6716 15 35.5 15Z" fill="#3F3D56"/>
<path id="Vector_5" d="M41.5 15C42.3284 15 43 14.3284 43 13.5C43 12.6716 42.3284 12 41.5 12C40.6716 12 40 12.6716 40 13.5C40 14.3284 40.6716 15 41.5 15Z" fill="#3F3D56"/>
<path id="Vector_6" d="M85.9053 35C84.5472 35.6175 83.3304 36.6152 82.2677 37.9874C81.0396 39.5744 79.7239 40.6922 78.38 41.4496C78.3164 41.4849 78.2542 41.5188 78.1906 41.5528C76.9858 42.202 75.6646 42.6069 74.3029 42.7441C73.8915 42.7855 73.4783 42.8053 73.0649 42.8034C72.8925 42.802 72.7201 42.7978 72.5491 42.7893C72.1435 42.7695 71.7421 42.7299 71.3479 42.6734C69.0839 42.3512 67.0362 41.4807 65.5198 40.6625C63.4421 39.5166 61.1869 38.7275 58.8481 38.328C58.4297 38.2587 58.0124 38.2046 57.596 38.1655C57.4235 38.1485 57.2525 38.1358 57.0816 38.1245C56.6618 38.0962 56.2426 38.083 55.8238 38.0849C55.609 38.0863 55.3956 38.0906 55.1808 38.099C51.5715 38.2404 46.8641 39.2691 42.6428 42.8628C42.5863 42.9108 42.5312 42.9589 42.4747 43.0069C42.4224 43.0521 42.3701 43.0988 42.3178 43.1454C41.6497 43.7393 41.02 44.3751 40.4326 45.0489C39.7592 45.8206 39.1361 46.6349 38.5672 47.4866C37.8916 48.4837 37.1024 49.399 36.2156 50.214C34.9039 51.4244 33.8534 52.8901 33.1288 54.5212C32.4041 56.1523 32.0204 57.9143 32.0014 59.699V59.7697C32 59.846 32 59.9237 32 60H78.6541C78.7107 59.9237 78.7672 59.8474 78.8223 59.7697C78.9636 59.5761 79.1035 59.3796 79.2406 59.1832C79.5162 58.7904 79.7833 58.3923 80.0419 57.9891C80.3033 57.5849 80.5558 57.1756 80.7994 56.7611C80.8601 56.6579 80.9209 56.5533 80.9817 56.4488C81.1018 56.241 81.2205 56.0305 81.3378 55.8199C81.4551 55.6094 81.5696 55.396 81.6812 55.1826C81.7943 54.9692 81.905 54.7549 82.0133 54.5396C82.0684 54.4308 82.1221 54.322 82.1744 54.2146C82.2267 54.1086 82.2776 54.0026 82.3299 53.8952C82.361 53.8302 82.3906 53.7666 82.4217 53.7016C82.4684 53.6041 82.5136 53.5052 82.5588 53.4063C82.7651 52.9611 82.962 52.5113 83.1495 52.0567C83.1976 51.9437 83.2442 51.8292 83.2894 51.7147C83.3813 51.4872 83.4713 51.2578 83.5593 51.0265C83.6032 50.9121 83.6456 50.7962 83.6894 50.6803C83.7318 50.5644 83.7742 50.4485 83.8151 50.3312C83.8575 50.2154 83.8985 50.0981 83.9381 49.9822C83.9791 49.8649 84.0186 49.7476 84.0582 49.6303C84.0978 49.513 84.1359 49.3957 84.1741 49.277C84.2123 49.1597 84.2504 49.041 84.2872 48.9223C84.3197 48.8192 84.3522 48.7146 84.3847 48.61C84.4991 48.2327 84.6079 47.8531 84.7111 47.471C84.7733 47.2365 84.8341 47.0009 84.8934 46.7645C85.0432 46.1596 85.1789 45.5487 85.3004 44.9316C85.3244 44.8073 85.3485 44.6829 85.3711 44.5571C85.3937 44.4328 85.4163 44.3084 85.4375 44.1841C85.4601 44.0597 85.4813 43.9354 85.5011 43.811C85.5223 43.6852 85.5421 43.5609 85.5605 43.4351C85.576 43.339 85.5901 43.2415 85.6043 43.1454C85.6085 43.1157 85.6127 43.0875 85.617 43.0592C85.6269 42.9928 85.6353 42.9278 85.6438 42.8628C85.6523 42.802 85.6608 42.7412 85.6693 42.6819C85.6862 42.5547 85.7018 42.4289 85.7173 42.3018C85.7413 42.1138 85.7625 41.923 85.7823 41.7323H85.7837C85.7894 41.6687 85.7965 41.6051 85.8035 41.5415C85.8063 41.5118 85.8092 41.4807 85.812 41.4496C85.877 40.8081 85.9251 40.1613 85.9561 39.5094C85.9604 39.4119 85.9646 39.3129 85.9689 39.2126C85.9717 39.1603 85.9731 39.1095 85.9745 39.0572C85.9816 38.8749 85.9872 38.6926 85.9901 38.5103C85.9971 38.2319 86.0004 37.9526 86 37.6723C86 36.7735 85.9684 35.8828 85.9053 35Z" fill="#FFDC00"/>
<path id="Vector_7" d="M42 45H41V60H42V45Z" fill="#3F3D56"/>
<path id="Vector_8" d="M58 38H57V60H58V38Z" fill="#3F3D56"/>
<path id="Vector_9" d="M73 43H72V61H73V43Z" fill="#3F3D56"/>
<path id="Vector_10" d="M57.5 39C58.3284 39 59 38.3284 59 37.5C59 36.6716 58.3284 36 57.5 36C56.6716 36 56 36.6716 56 37.5C56 38.3284 56.6716 39 57.5 39Z" fill="#3F3D56"/>
<path id="Vector_11" d="M72.5 44C73.3284 44 74 43.3284 74 42.5C74 41.6716 73.3284 41 72.5 41C71.6716 41 71 41.6716 71 42.5C71 43.3284 71.6716 44 72.5 44Z" fill="#3F3D56"/>
<path id="Vector_12" d="M41.5 45C42.3284 45 43 44.3284 43 43.5C43 42.6716 42.3284 42 41.5 42C40.6716 42 40 42.6716 40 43.5C40 44.3284 40.6716 45 41.5 45Z" fill="#3F3D56"/>
<path id="Vector_13" d="M78 60C77.9433 60.1507 77.8866 60.2986 77.83 60.4466C77.7605 60.6329 77.6882 60.8164 77.616 61H31V60H78Z" fill="#3F3D56"/>
<path id="Vector_14" d="M18.0003 96H19.3553L20 91L18 91.0001L18.0003 96Z" fill="#FFB8B8"/>
<path id="Vector_15" d="M22.4294 96.9349C22.2494 96.8003 22.035 96.6936 21.7988 96.6211C21.5623 96.5494 21.3092 96.5125 21.0537 96.5125L20.1399 96L20.0915 96.0141L18.4371 96.5125H18V98H23V97.9533C23.0007 97.764 22.9507 97.5765 22.8528 97.4017C22.7548 97.2269 22.6109 97.0682 22.4294 96.9349Z" fill="#2F2E41"/>
<path id="Vector_16" d="M25.0003 96H26.3553L27 91L25 91.0001L25.0003 96Z" fill="#FFB8B8"/>
<path id="Vector_17" d="M29.4309 96.9349C29.2506 96.8 29.0357 96.6934 28.7988 96.6211C28.5624 96.5492 28.3092 96.5123 28.0537 96.5125L27.1414 96L27.0915 96.0152L25.4371 96.5125H25L25.0015 98H30V97.9533C30.0007 97.7641 29.9507 97.5767 29.8531 97.4019C29.7554 97.2271 29.6119 97.0684 29.4309 96.9349Z" fill="#2F2E41"/>
<path id="Vector_18" d="M27.0704 66L15 66.3093L15.2099 72.0825C15.2099 72.0825 15 73.6289 15.4198 74.0412C15.8397 74.4536 16.0496 74.4536 15.8397 75.1753C15.6298 75.8969 16.7389 77.0756 16.6042 77.2079C16.4694 77.3402 16.1546 78.0619 16.1546 78.0619L17.2042 83.9381C17.2042 83.9381 17.9389 94.1443 18.1488 94.3505C18.3587 94.5567 18.5686 94.3505 18.3587 94.866C18.1488 95.3814 17.9389 95.1753 18.1488 95.3814C18.3347 95.5784 18.5099 95.7848 18.6736 96H21.2112C21.2112 96 21.4026 94.9691 21.4026 94.866C21.4026 94.7629 21.6125 94.1443 21.6125 94.0412C21.6125 93.9381 21.4269 93.7559 21.4269 93.7559C21.3628 93.5463 21.3195 93.3312 21.2976 93.1134C21.2976 92.9072 20.6678 84.9691 20.6678 84.9691L21.9274 74.6598L24.9712 84.7629C24.9712 84.7629 24.9712 93.6289 25.1811 93.835C25.391 94.0412 25.391 93.9381 25.2861 94.3505C25.1811 94.7629 24.7613 94.6598 25.0761 94.9691C25.391 95.2783 25.496 94.7629 25.391 95.2783L25.2861 95.7938L28.4349 95.8381C28.4349 95.8381 28.8547 94.9691 28.6448 94.6598C28.4349 94.3505 28.4475 94.4349 28.7036 93.9288C28.9597 93.4227 29.0646 93.3196 28.9597 93.2165C28.8547 93.1134 28.8547 92.5651 28.8547 92.5651L28.3299 82.701C28.3299 82.701 28.2249 72.2887 28.2249 71.9794C28.217 71.8202 28.2469 71.6615 28.3121 71.5156V71.0958L27.9101 69.6082L27.0704 66Z" fill="#2F2E41"/>
<path id="Vector_19" d="M39.9306 43.4419C39.8749 43.5886 39.7859 43.722 39.6698 43.8326C39.5537 43.9432 39.4135 44.0284 39.2589 44.0821C39.1043 44.1358 38.9391 44.1568 38.775 44.1436C38.611 44.1303 38.4519 44.0832 38.3092 44.0055L33.2737 48L33 46.0475L37.9252 42.4775C38.079 42.259 38.3121 42.1016 38.5802 42.0351C38.8484 41.9685 39.1331 41.9974 39.3803 42.1162C39.6275 42.2351 39.8201 42.4357 39.9215 42.6801C40.0229 42.9244 40.0262 43.1955 39.9306 43.4419H39.9306Z" fill="#FFB8B8"/>
<path id="Vector_20" d="M17 45C18.6569 45 20 43.6569 20 42C20 40.3431 18.6569 39 17 39C15.3431 39 14 40.3431 14 42C14 43.6569 15.3431 45 17 45Z" fill="#FFB8B8"/>
<path id="Vector_21" d="M19.4874 39.0152C19.182 38.3443 17.8732 37.9459 15.8022 38.0059C13.7313 38.0659 13.3686 40.3424 13.3686 40.3424C12.2279 41.3224 14.0695 44.3822 14.389 43.9603C14.7085 43.5385 15.245 43.9372 15.245 43.9372L14.7338 41.2867C15.2736 41.4781 15.8542 41.6067 16.362 41.3836L15.5207 40.969L17.6126 41.2089L16.7499 40.5971C16.7708 40.5908 16.7917 40.5842 16.8126 40.5777C17.1586 40.7152 17.5291 40.7927 17.9056 40.8064C18.3454 40.8034 18.8128 40.6134 18.9971 40.2453C19.0461 40.1442 19.0726 40.0351 19.0751 39.9244C19.6816 40.1059 20 40.7607 20 40.7607C19.8849 40.1662 19.7133 39.5821 19.4874 39.0152Z" fill="#2F2E41"/>
<path id="Vector_22" d="M19.8549 44.7114C19.131 44.7114 18.6648 44.8075 17.5385 44.99C15.4595 45.3272 16.7046 47.2283 16.7046 47.2283C16.7046 47.2283 16.7987 47.1823 16.5439 47.2283C16.2891 47.2743 15.4205 47.9974 15.4205 47.9974L13.867 49.3253C11.526 51.0934 12.0501 53.8522 12.0501 53.8522L15.4639 57.1586L13.9684 63.7922C13.9684 63.7922 14.6039 64.7772 14.2753 65.2189C13.9466 65.6606 17.1708 65.5338 17.1708 65.5338C19.3959 66.4882 27.2354 65.6815 27.2354 65.6815C27.1268 65.4084 26.0772 63.292 26.0772 63.292C26.5333 62.534 26.0989 61.4388 26.0989 61.4388C26.0989 61.4388 25.6458 56.2585 25.3563 55.5423C25.0667 54.8261 26.0975 50.9457 26.775 50.9875C27.4526 51.0293 31.8291 48.8808 31.8291 48.8808C31.8291 48.8808 31.719 48.7122 33.1639 48.1437C33.9938 47.8299 34.7546 47.3681 35.4064 46.7825L36 45.6413C35.7148 45.7472 34.7521 44 34.7521 44L34.3322 44.154L34.089 44.0864C34.089 44.0864 32.191 44.6061 31.803 44.9851C31.415 45.3641 31.2847 45.2582 30.9344 45.3432C30.584 45.4282 30.5406 45.665 30.4306 45.6385C30.3205 45.6121 30.1251 45.9325 29.9716 45.8907C29.8182 45.8489 29.4895 46.0175 29.2709 46.0593C29.0523 46.1011 27.4989 46.7337 27.4989 46.7337C26.5376 46.2655 23.9317 46.455 23.9317 46.455C23.9317 46.455 23.079 45.9716 22.8372 46.455C22.7721 46.5924 22.6677 46.709 22.5361 46.7912C22.4046 46.8734 22.2513 46.9177 22.0945 46.919L21.055 46.4913C20.9946 46.7035 19.8608 44.4914 19.8549 44.7114Z" fill="#3F3D56"/>
<path id="Vector_23" d="M7.83933 91.3671L7.70055 88.2056C6.2539 87.4221 4.64034 87.0083 3 87C5.25759 88.8701 4.97546 92.475 6.50606 94.9899C6.98937 95.7705 7.63987 96.431 8.40935 96.9223C9.17883 97.4136 10.0476 97.7231 10.9512 97.828L12.8404 99C13.0997 97.5357 13.0425 96.032 12.6729 94.5922C12.3033 93.1525 11.63 91.8111 10.6995 90.6604C10.1711 90.0201 9.56529 89.4497 8.89628 88.9628C8.44381 90.1716 7.83933 91.3671 7.83933 91.3671Z" fill="#F2F2F2"/>
<path id="Vector_24" d="M42 43H41V43.2841H42V43Z" fill="#3F3D56"/>
<path id="Vector_25" d="M44 43V43.2841H45.7433V43H44ZM47.4867 43V43.2841H49.2286V43H47.4867ZM50.9719 43V43.2841H52.7153V43H50.9719ZM54.4572 43V43.2841H56.2006V43H54.4572ZM57.9439 43V43.2841H59.6858V43H57.9439ZM61.4292 43V43.2841H63.1725V43H61.4292ZM64.9144 43V43.2841H66.6578V43H64.9144ZM68.4011 43V43.2841H70.143V43H68.4011ZM71.8864 43V43.2841H73.6297V43H71.8864ZM75.3716 43V43.2841H77.115V43H75.3716ZM78.8569 43V43.2841H80.6002V43H78.8569ZM82.3436 43V43.2841H84.0855V43H82.3436ZM85.8288 43V43.2841H85.9583C85.9626 43.2543 85.9669 43.2259 85.9712 43.1975C85.9813 43.1321 85.9899 43.0668 86 43H85.8288Z" fill="#3F3D56"/>
<path id="Vector_26" d="M58 37H57V37.2841H58V37Z" fill="#3F3D56"/>
<path id="Vector_27" d="M59 37V37.2841H60.7338V37H59ZM62.4676 37V37.2841H64.2V37H62.4676ZM65.9338 37V37.2841H67.6676V37H65.9338ZM69.4 37V37.2841H71.1338V37H69.4ZM72.8676 37V37.2841H74.6V37H72.8676ZM76.3338 37V37.2841H78.0676V37H76.3338ZM79.8 37V37.2841H81.5338V37H79.8ZM83.2676 37V37.2841H85V37H83.2676Z" fill="#3F3D56"/>
<path id="Vector_28" d="M73 42H72V42.2841H73V42Z" fill="#3F3D56"/>
<path id="Vector_29" d="M74 42V42.2841H75.7055V42H74ZM77.411 42V42.2841H79.1151V42H77.411ZM80.8206 42V42.2841H82.5262V42H80.8206ZM84.2303 42V42.2841H84.9719C84.9775 42.2202 84.9845 42.1563 84.9916 42.0923C84.9944 42.0625 84.9972 42.0313 85 42H84.2303Z" fill="#3F3D56"/>
<path id="Vector_30" d="M22 71.2715V61.7285C22.0002 61.5354 22.08 61.3502 22.2219 61.2136C22.3638 61.077 22.5561 61.0002 22.7568 61H30.2432C30.4439 61.0002 30.6362 61.077 30.7781 61.2136C30.92 61.3502 30.9998 61.5354 31 61.7285V71.2715C30.9998 71.4646 30.92 71.6498 30.7781 71.7864C30.6362 71.923 30.4439 71.9998 30.2432 72H22.7568C22.5561 71.9998 22.3638 71.923 22.2219 71.7864C22.08 71.6498 22.0002 71.4646 22 71.2715Z" fill="#E6E6E6"/>
<path id="Vector_31" d="M22 68.225V62.623C22.0002 62.4578 22.0668 62.2995 22.1853 62.1827C22.3037 62.0659 22.4643 62.0002 22.6319 62H28.3681C28.5356 62.0002 28.6962 62.0659 28.8147 62.1827C28.9332 62.2995 28.9998 62.4578 29 62.623V70.377C28.9998 70.5422 28.9332 70.7005 28.8147 70.8173C28.6962 70.9341 28.5356 70.9998 28.3681 71H24.8146C24.0684 70.9992 23.353 70.7065 22.8253 70.1863C22.2977 69.6661 22.0008 68.9607 22 68.225Z" fill="white"/>
<path id="Vector_32" d="M23 64C23.0002 63.7349 23.0626 63.4807 23.1736 63.2932C23.2846 63.1057 23.4351 63.0003 23.5921 63H27.4079C27.5649 63 27.7155 63.1054 27.8266 63.2929C27.9376 63.4804 28 63.7348 28 64C28 64.2652 27.9376 64.5196 27.8266 64.7071C27.7155 64.8946 27.5649 65 27.4079 65H23.5921C23.4351 64.9997 23.2846 64.8943 23.1736 64.7068C23.0626 64.5193 23.0002 64.2651 23 64Z" fill="#E6E6E6"/>
<path id="Vector_33" d="M23 67C23.0002 66.7349 23.0626 66.4807 23.1736 66.2932C23.2846 66.1057 23.4351 66.0003 23.5921 66H27.4079C27.5649 66 27.7155 66.1054 27.8266 66.2929C27.9376 66.4804 28 66.7348 28 67C28 67.2652 27.9376 67.5196 27.8266 67.7071C27.7155 67.8946 27.5649 68 27.4079 68H23.5921C23.4351 67.9997 23.2846 67.8943 23.1736 67.7068C23.0626 67.5193 23.0002 67.2651 23 67Z" fill="#E6E6E6"/>
<path id="Vector_34" d="M23 68C23.0002 67.7349 23.0626 67.4807 23.1736 67.2932C23.2846 67.1057 23.4351 67.0003 23.5921 67H27.4079C27.5649 67 27.7155 67.1054 27.8266 67.2929C27.9376 67.4804 28 67.7348 28 68C28 68.2652 27.9376 68.5196 27.8266 68.7071C27.7155 68.8946 27.5649 69 27.4079 69H23.5921C23.4351 68.9997 23.2846 68.8943 23.1736 68.7068C23.0626 68.5193 23.0002 68.2651 23 68Z" fill="#E6E6E6"/>
<path id="Vector_35" d="M21.9474 67.9998C21.7925 68.0025 21.6388 67.9736 21.4973 67.915C21.3557 67.8565 21.2297 67.7699 21.128 67.6612C21.0264 67.5525 20.9516 67.4243 20.909 67.2859C20.8663 67.1474 20.8569 67.0019 20.8813 66.8597L15 63.8656L16.7213 63L22.1714 66.0434C22.4257 66.0974 22.6499 66.2362 22.8015 66.4335C22.9531 66.6308 23.0216 66.873 22.994 67.1142C22.9664 67.3553 22.8446 67.5787 22.6517 67.7419C22.4588 67.9051 22.2082 67.9969 21.9474 67.9998Z" fill="#FFB8B8"/>
<path id="Vector_36" d="M18.8671 66L16.7816 65.6232L16.0349 64.9917L15.5327 64.7315L13.8018 63.4958L13.7967 63.4802L11.0464 55.211C10.9201 54.5319 11.0538 53.8294 11.4201 53.2474C11.7865 52.6653 12.3577 52.2477 13.0168 52.08C13.3814 51.9878 13.7609 51.9751 14.1306 52.0429C14.5003 52.1106 14.8516 52.2572 15.1616 52.473C15.4715 52.6888 15.733 52.969 15.9288 53.295C16.1247 53.621 16.2504 53.9855 16.2977 54.3645L17.1828 61.4516L18.65 62.9928L19.2919 63.1192L19.4397 63.8223L20 64.7036L18.8671 66Z" fill="#3F3D56"/>
</g>
</g>
</g>
</g>
<defs>
<clipPath id="clip0_0_1">
<rect width="86" height="99" fill="white"/>
</clipPath>
</defs>
</svg>
