<svg width="81" height="99" viewBox="0 0 81 99" fill="none" xmlns="http://www.w3.org/2000/svg">
<rect width="81" height="99" fill="#F5F5F5"/>
<g id="Tejamkor yechim">
<rect width="1440" height="4225" transform="translate(-795 -1175)" fill="white"/>
<g id="Group 22">
<g id="Group 5">
<rect id="Rectangle 24" x="-258" y="-166" width="363" height="289" rx="12" fill="#FCFCFC"/>
<g id="undraw_personal_finance_re_ie6k 1" clip-path="url(#clip0_0_1)">
<path id="Vector" d="M81 98.6322V99H14V0H14.3649V98.6322H81Z" fill="#3F3D56"/>
<path id="Vector_2" d="M60 86.7326C60 86.7326 59.7893 87.794 59.4757 89.4015C59.0311 91.6616 58.3861 95.0035 57.8438 98H18C20.9143 93.363 24.8128 88.4695 27.9147 84.8102L28.146 84.5359C28.2462 84.4191 28.3439 84.3049 28.4415 84.1906C29.6699 82.7558 30.7442 81.542 31.546 80.6481C31.546 80.6456 31.5485 80.6456 31.5511 80.6456C32.4891 79.6019 33.0571 79 33.0571 79L34.0542 79.287L36.3569 79.9472L53.3028 84.8102L60 86.7326Z" fill="#2F2E41"/>
<path id="Vector_3" d="M61.9991 88.7023C61.9231 92.4837 42.7838 87.0626 39.9027 84.3725C37.0216 81.6804 31.3898 86.2437 28.601 84.4892C25.8123 82.7328 33.6335 76.0741 33.6335 76.0741C33.5714 74.4898 33.0976 72.951 32.2608 71.6164C30.8882 69.5099 32.2608 70.6808 33.0884 69.6988C33.9141 68.7169 34.1568 60.8984 34.1568 60.8984L32.2825 55.0641C31.3942 52.3011 31.3699 49.3234 32.2132 46.5456C33.0564 43.7678 34.7252 41.3281 36.9872 39.5661L41.6394 33.4687L48.7308 33L51.9342 36.7462L58.3393 41.1928L57.2202 55.3921C57.2202 55.3921 57.5661 57.5005 58.0731 60.6631C58.419 62.8234 58.8409 65.4783 59.2774 68.2889C60.5902 76.7503 62.0408 86.6217 61.9991 88.7023Z" fill="#3F3D56"/>
<path id="Vector_4" d="M68.752 84.3391L67 76.5925L71.4024 75L72.9556 83.2544C73.3547 83.5591 73.6586 83.9662 73.8332 84.4299C74.0079 84.8937 74.0463 85.3957 73.9441 85.8796C73.8419 86.3635 73.6033 86.8099 73.2549 87.1689C72.9066 87.5278 72.4624 87.785 71.9723 87.9115C71.4822 88.038 70.9656 88.0287 70.4805 87.8848C69.9955 87.7409 69.5613 87.468 69.2267 87.0969C68.8921 86.7257 68.6704 86.271 68.5866 85.7838C68.5027 85.2966 68.56 84.7963 68.7519 84.3391H68.752Z" fill="#FFB6B6"/>
<path id="Vector_5" d="M52 38.0905L52.1218 38.0727C53.2551 37.9072 54.4109 38.0253 55.4892 38.4167C56.5675 38.8082 57.5357 39.4612 58.3102 40.3192C60.332 42.5563 63.0137 45.9394 64.6332 49.648C67.4936 56.198 68.5888 59.1791 68.7736 61.7183C68.9585 64.2574 68.2885 63.6696 69.3882 64.9909C70.488 66.3122 70.9731 64.3608 70.9177 67.0457C70.8623 69.7306 69.855 69.6789 70.9086 70.3654C71.9621 71.0518 72.6829 70.6146 72.438 72.4202C72.1932 74.2258 72.4797 74.7148 72.5259 75.3496C72.5721 75.9844 74 80.0893 74 80.0893C74 80.0893 69.4394 81.1991 67.5634 83C67.5634 83 67.4802 78.4107 66.5699 77.9688C65.6596 77.5268 64.7955 77.7196 65.0866 76.5487C65.3777 75.3779 66.7223 74.8936 65.0912 74.8889C63.4601 74.8843 53.6592 53.4675 53.6592 53.4675L52 38.0905Z" fill="#3F3D56"/>
<path id="Vector_6" d="M52.005 26.0033C52.6674 21.9144 49.8901 18.061 45.8016 17.3964C41.7131 16.7318 37.8618 19.5077 37.1994 23.5965C36.537 27.6854 39.3144 31.5388 43.4028 32.2034C47.4913 32.868 51.3426 30.0921 52.005 26.0033Z" fill="#FFB6B6"/>
<path id="Vector_7" d="M52.8671 23.0343C53.3777 24.8207 52.3446 26.8638 51.0043 25.4266C50.4173 24.7972 50.4428 24.0133 49.6318 23.7866C48.9769 23.6028 48.2721 23.8129 47.6747 24.1442C47.568 24.2026 47.0904 22.7432 46.9896 22.8064C46.9231 22.76 47.231 24.2393 47.16 24.1989C46.6256 23.9 46.0019 23.8267 45.4174 23.9941C45.8793 24.1558 46.2808 24.4651 46.5653 24.8784C46.3654 25.0184 46.1628 25.1588 45.9557 25.2832C45.5663 25.5181 42.0148 25.3091 41.567 25.2623C39.4181 25.038 40.4834 26.4692 39.5967 28.5272C39.5745 28.5787 39.5521 28.6309 39.5295 28.6838L39.4952 28.8155C39.5515 28.2355 37.8341 27.8032 37.9337 28.6197C38.0044 29.1995 38.4845 30.4881 38.7533 31C36.1771 29.1602 33.6683 27.1896 35.8055 22.9314C36.0797 22.385 35.8475 21.67 36.1504 21.1373C36.4536 20.6073 37.0858 20.2354 37.645 20.4375C37.5976 19.5057 37.7927 18.5779 38.2096 17.7527C38.6264 16.9276 39.2494 16.2359 40.0123 15.7512C40.7752 15.2665 41.6495 15.007 42.5422 15.0001C43.435 14.9933 44.3129 15.2395 45.0825 15.7124C45.7976 16.151 46.2857 17.6488 47.05 17.3063C48.5214 16.6471 49.167 17.2744 49.2922 18.3519C49.3558 18.8996 50.3932 18.2439 50.8462 18.5293C51.3709 18.8605 51.4607 19.5539 51.5395 20.2211C51.0714 20.2693 50.6278 20.4623 50.2653 20.7753C50.7495 20.7237 51.237 20.833 51.6584 21.0876C51.6664 21.0914 51.674 21.0959 51.6812 21.1012C51.9586 22.2038 51.9302 22.4483 52.8671 23.0343Z" fill="#2F2E41"/>
<path id="Vector_8" d="M81 36V38H69.0065C68.875 38.0009 68.7447 37.9758 68.6229 37.9262C68.5011 37.8766 68.3903 37.8035 68.2968 37.7111C68.2033 37.6186 68.129 37.5086 68.0781 37.3874C68.0271 37.2661 68.0006 37.136 68 37.0045C67.9994 36.873 68.0248 36.7427 68.0746 36.621C68.1244 36.4993 68.1978 36.3886 68.2904 36.2953C68.3831 36.202 68.4932 36.1279 68.6146 36.0772C68.7359 36.0265 68.866 36.0003 68.9975 36H81Z" fill="#FFDC00"/>
<path id="Vector_9" d="M11.945 52.958C10.8611 51.4696 9.96109 49.8636 9.26352 48.1728C9.24247 48.1218 9.20608 48.0781 9.15905 48.0473C9.11201 48.0165 9.05649 48 8.99967 48C8.94285 48 8.88733 48.0165 8.84031 48.0473C8.79328 48.0781 8.75689 48.1219 8.73586 48.1729C8.03866 49.8636 7.1389 51.4696 6.05496 52.9579C6.0188 53.0058 5.99953 53.0636 6.00001 53.1229C6.00049 53.1821 6.02069 53.2396 6.05761 53.2869C6.09454 53.3342 6.14624 53.3688 6.20506 53.3855C6.26388 53.4022 6.3267 53.4002 6.38424 53.3797L8.62461 52.5964V66H9.37459V52.5964L11.6158 53.3798C11.6733 53.4003 11.7361 53.4023 11.795 53.3856C11.8538 53.3689 11.9055 53.3343 11.9424 53.287C11.9793 53.2397 11.9995 53.1822 12 53.1229C12.0005 53.0637 11.9812 53.0059 11.945 52.958Z" fill="#3F3D56"/>
<path id="Vector_10" d="M81 41.1963V59H80.4061V45.596L78.3534 46.38C78.3007 46.4008 78.243 46.4031 78.1889 46.3866C78.1349 46.3701 78.0873 46.3356 78.0533 46.2884C78.0192 46.2411 78.0006 46.1835 78 46.1241C77.9995 46.0648 78.0171 46.0068 78.0503 45.9589C79.0438 44.4704 79.8686 42.8645 80.5078 41.1737C80.5212 41.1391 80.5411 41.1076 80.5662 41.0811C80.5913 41.0547 80.6212 41.0337 80.654 41.0196C80.6857 41.0062 80.7196 40.9995 80.7538 41C80.788 41.0005 80.8217 41.0082 80.8531 41.0225C80.8844 41.0369 80.9127 41.0576 80.9364 41.0836C80.9601 41.1095 80.9787 41.1402 80.9911 41.1737C80.9946 41.1813 80.9964 41.1888 81 41.1963Z" fill="#3F3D56"/>
<path id="Vector_11" d="M55 85C52.5685 83.0414 51.5146 77.7457 46.52 76.305C43.607 75.4648 41.1505 76.4555 37.0317 78.1165C31.6041 80.3054 29.2123 82.7881 26 85L55 85Z" fill="#F2F2F2"/>
<path id="Vector_12" d="M81 75V85H59C59.902 84.2866 60.7132 83.0897 61.6097 81.6185C62.7609 79.7286 64.0558 77.3865 65.8708 75.0371C65.8799 75.0241 65.8908 75.013 65.8999 75H81Z" fill="#F2F2F2"/>
<path id="Vector_13" d="M81 66V75H67C68.1573 73.5346 69.4548 72.2073 70.8707 71.0404C71.2517 70.7235 71.6416 70.4197 72.0405 70.1287C73.3191 69.2008 74.6728 68.4012 76.0847 67.7397C77.6708 66.9979 79.3161 66.4156 81 66Z" fill="#F2F2F2"/>
<path id="Vector_14" d="M81 60V71C79.9433 70.9992 78.9139 70.6306 78.0595 69.9471C77.2052 69.2635 76.5696 68.3002 76.244 67.1951C76.0815 66.6478 75.9991 66.0757 76 65.5C76.0002 64.042 76.5269 62.6438 77.4645 61.6125C78.402 60.5812 79.6737 60.0012 81 60Z" fill="#FFDC00"/>
<path id="Vector_15" d="M22 44.9973C22.0005 45.1285 21.9747 45.2585 21.9241 45.3799C21.8736 45.5013 21.7992 45.6117 21.7052 45.7048C21.6113 45.798 21.4996 45.8719 21.3766 45.9226C21.2536 45.9732 21.1217 45.9995 20.9883 46H0V44H20.981C21.2505 43.9994 21.5092 44.1041 21.7002 44.2911C21.8913 44.4781 21.9991 44.7321 22 44.9973Z" fill="#FFDC00"/>
<path id="Vector_16" d="M11.2681 78.1961L15 71.562L11.3239 69L7.64003 76.1479C7.1852 76.3257 6.7914 76.621 6.50291 77.0007C6.21442 77.3803 6.04267 77.8291 6.00698 78.2967C5.97128 78.7643 6.07306 79.2322 6.30085 79.6476C6.52865 80.0631 6.87343 80.4097 7.29645 80.6485C7.71948 80.8873 8.20396 81.0089 8.69543 80.9995C9.18691 80.9901 9.6659 80.8501 10.0785 80.5953C10.4912 80.3405 10.8211 79.981 11.0313 79.5572C11.2414 79.1333 11.3234 78.662 11.2681 78.1961V78.1961Z" fill="#FFB6B6"/>
<path id="Vector_17" d="M42 40.6702L41.8841 40.6192C40.806 40.1448 39.6274 39.9378 38.4503 40.0162C37.2733 40.0945 36.1332 40.4559 35.1289 41.0689C32.5077 42.6665 28.9165 45.1867 26.2888 48.3162C21.648 53.8432 18.1267 54.7262 17.2438 57.1254C16.3609 59.5245 17.1872 59.1433 15.7327 60.1131C14.2782 61.0828 14.3348 59.0649 13.65 61.6714C12.9652 64.2779 13.9783 64.5078 12.7445 64.8777C11.5107 65.2477 10.9164 64.6255 10.6617 66.4361C10.4071 68.2466 9.98824 68.639 9.76753 69.2388C9.54682 69.8386 7 73.4036 7 73.4036C7 73.4036 11.2165 75.741 12.5805 78C12.5805 78 13.9274 73.5941 14.9518 73.4203C15.9762 73.2466 16.7799 73.6726 16.8138 72.4618C16.8478 71.251 15.6479 70.4102 17.2666 70.8586C18.8853 71.307 30.8311 58.5081 30.8311 58.5081L42 40.6702Z" fill="#3F3D56"/>
<path id="Vector_18" d="M14.1766 73.8697C14.2775 70.8338 11.8983 68.2907 8.86238 68.1894C5.8265 68.0882 3.28363 70.4671 3.18272 73.503C3.08181 76.5389 5.46107 79.0821 8.49694 79.1833C11.5328 79.2846 14.0757 76.9056 14.1766 73.8697Z" fill="#F2F2F2"/>
</g>
</g>
</g>
</g>
<defs>
<clipPath id="clip0_0_1">
<rect width="81" height="99" fill="white"/>
</clipPath>
</defs>
</svg>
