<svg width="161" height="128" viewBox="0 0 161 128" fill="none" xmlns="http://www.w3.org/2000/svg">
<rect width="161" height="128" fill="#F5F5F5"/>
<g id="Tejamkor yechim">
<rect width="1440" height="4225" transform="translate(-523 -825)" fill="white"/>
<g id="Group 22">
<g id="Group 2">
<rect id="Rectangle 24" x="-373" y="-137" width="558" height="289" rx="12" fill="#FCFCFC"/>
<g id="undraw_calculator_re_alsc 1" clip-path="url(#clip0_0_1)">
<path id="Vector" d="M68.4482 122.473C69.0403 122.509 69.3676 121.787 68.9196 121.366L68.875 121.192C68.8809 121.178 68.8868 121.164 68.8927 121.151C69.4915 119.749 71.521 119.758 72.1148 121.162C72.6417 122.408 73.3127 123.656 73.4779 124.974C73.5519 125.555 73.5186 126.148 73.3872 126.718C74.622 124.07 75.2717 121.179 75.2717 118.271C75.2717 117.541 75.231 116.81 75.1477 116.082C75.0792 115.485 74.9848 114.893 74.8626 114.306C74.2017 111.133 72.7707 108.111 70.7065 105.586C69.7143 105.054 68.8868 104.222 68.3869 103.224C68.2073 102.864 68.0666 102.477 68 102.083C68.1129 102.097 68.4258 100.409 68.3406 100.305C68.498 100.071 68.7797 99.9543 68.9515 99.7256C69.8063 98.5879 70.984 98.7865 71.5989 100.333C72.9122 100.983 72.9249 102.062 72.1191 103.1C71.6064 103.761 71.5359 104.654 71.086 105.361C71.1323 105.419 71.1805 105.476 71.2267 105.534C72.0755 106.602 72.8095 107.751 73.4283 108.958C73.2534 107.617 73.5116 106.001 73.9518 104.959C74.4529 103.773 75.3921 102.773 76.2191 101.748C77.2126 100.515 79.2497 101.053 79.4247 102.615C79.4264 102.63 79.4281 102.645 79.4297 102.661C79.3068 102.729 79.1865 102.801 79.0689 102.877C78.3984 103.313 78.6301 104.333 79.4246 104.453L79.4426 104.456C79.3982 104.89 79.3223 105.321 79.2112 105.745C80.2722 109.773 77.9816 111.24 74.7108 111.306C74.6386 111.342 74.5683 111.378 74.4961 111.413C74.8274 112.329 75.0922 113.268 75.2884 114.221C75.4643 115.062 75.5865 115.912 75.655 116.767C75.7401 117.844 75.7327 118.927 75.6401 120.003L75.6457 119.965C75.8808 118.78 76.5362 117.673 77.4877 116.907C78.9052 115.763 80.9079 115.343 82.4372 114.424C83.1733 113.981 84.1166 114.553 83.9882 115.391L83.9819 115.431C83.7542 115.522 83.5321 115.627 83.3173 115.745C83.1945 115.813 83.0741 115.886 82.9566 115.962C82.286 116.397 82.5177 117.418 83.3123 117.538L83.3303 117.541C83.3432 117.543 83.3543 117.544 83.3673 117.546C82.9767 118.457 82.4324 119.302 81.7512 120.031C81.0877 123.547 78.2383 123.88 75.1903 122.857H75.1884C74.8552 124.281 74.3683 125.673 73.7426 127H68.5776C68.5591 126.944 68.5424 126.886 68.5258 126.829C69.0034 126.858 69.4847 126.831 69.9549 126.746C69.5717 126.284 69.1885 125.819 68.8053 125.357C68.796 125.348 68.7886 125.339 68.7812 125.33C68.5869 125.094 68.3906 124.859 68.1962 124.623L68.1961 124.623C68.184 123.897 68.2725 123.175 68.448 122.473L68.4482 122.473Z" fill="#F2F2F2"/>
<path id="Vector_2" d="M0 127.5C0 127.777 0.15156 128 0.340294 128H115.66C115.848 128 116 127.777 116 127.5C116 127.223 115.848 127 115.66 127H0.340294C0.15156 127 0 127.223 0 127.5Z" fill="#CCCCCC"/>
<path id="Vector_3" d="M155.387 128H96.6126C93.5178 128 91 125.477 91 122.377V5.62305C91 2.52255 93.5178 0 96.6126 0H155.387C158.482 0 161 2.52255 161 5.62305V122.377C161 125.477 158.482 128 155.387 128ZM96.6126 0.570156C93.8271 0.570156 91.5691 2.83235 91.5691 5.62291V122.377C91.5691 125.168 93.8272 127.43 96.6127 127.43H155.387C158.173 127.43 160.431 125.168 160.431 122.377V42.9626C160.431 19.5499 141.486 0.570156 118.117 0.570156H96.6126Z" fill="#E6E6E6"/>
<g id="Group">
<path id="Vector_4" d="M108 58C111.866 58 115 54.866 115 51C115 47.134 111.866 44 108 44C104.134 44 101 47.134 101 51C101 54.866 104.134 58 108 58Z" fill="#E6E6E6"/>
<path id="Vector_5" d="M144 58C147.866 58 151 54.866 151 51C151 47.134 147.866 44 144 44C140.134 44 137 47.134 137 51C137 54.866 140.134 58 144 58Z" fill="#E6E6E6"/>
<path id="Vector_6" d="M126 58C129.866 58 133 54.866 133 51C133 47.134 129.866 44 126 44C122.134 44 119 47.134 119 51C119 54.866 122.134 58 126 58Z" fill="#E6E6E6"/>
</g>
<path id="Vector_7" d="M108 78C111.866 78 115 74.866 115 71C115 67.134 111.866 64 108 64C104.134 64 101 67.134 101 71C101 74.866 104.134 78 108 78Z" fill="#E6E6E6"/>
<path id="Vector_8" d="M144 78C147.866 78 151 74.866 151 71C151 67.134 147.866 64 144 64C140.134 64 137 67.134 137 71C137 74.866 140.134 78 144 78Z" fill="#E6E6E6"/>
<path id="Vector_9" d="M126 78C129.866 78 133 74.866 133 71C133 67.134 129.866 64 126 64C122.134 64 119 67.134 119 71C119 74.866 122.134 78 126 78Z" fill="#E6E6E6"/>
<path id="Vector_10" d="M108 97C111.866 97 115 93.866 115 90C115 86.134 111.866 83 108 83C104.134 83 101 86.134 101 90C101 93.866 104.134 97 108 97Z" fill="#E6E6E6"/>
<path id="Vector_11" d="M144 117C147.866 117 151 113.866 151 110C151 106.134 147.866 103 144 103C140.134 103 137 106.134 137 110C137 113.866 140.134 117 144 117Z" fill="#E6E6E6"/>
<path id="Vector_12" d="M117 117C125.837 117 133 113.866 133 110C133 106.134 125.837 103 117 103C108.163 103 101 106.134 101 110C101 113.866 108.163 117 117 117Z" fill="#E6E6E6"/>
<path id="Vector_13" d="M144 97C147.866 97 151 93.866 151 90C151 86.134 147.866 83 144 83C140.134 83 137 86.134 137 90C137 93.866 140.134 97 144 97Z" fill="#E6E6E6"/>
<path id="Vector_14" d="M126 97C129.866 97 133 93.866 133 90C133 86.134 129.866 83 126 83C122.134 83 119 86.134 119 90C119 93.866 122.134 97 126 97Z" fill="#FFDC00"/>
<path id="Vector_15" d="M127.456 8H61.5436C59.5892 8 58 9.57398 58 11.5096V35.4904C58 37.426 59.5892 39 61.5436 39H127.456C129.411 39 131 37.426 131 35.4904V11.5096C131 9.57398 129.411 8 127.456 8Z" fill="white"/>
<path id="Vector_16" d="M127.456 8H61.5436C59.5892 8 58 9.57398 58 11.5096V35.4904C58 37.426 59.5892 39 61.5436 39H127.456C129.411 39 131 37.426 131 35.4904V11.5096C131 9.57398 129.411 8 127.456 8ZM130.627 35.4904C130.627 37.223 129.206 38.631 127.456 38.631H61.5436C59.7942 38.631 58.3726 37.223 58.3726 35.4904V11.5096C58.3726 9.77697 59.7942 8.36905 61.5436 8.36905H127.456C129.206 8.36905 130.627 9.77697 130.627 11.5096V35.4904Z" fill="#3F3D56"/>
<path id="Vector_17" d="M123.005 23H64.9953C64.4456 23 64 23.4477 64 24C64 24.5523 64.4456 25 64.9953 25H123.005C123.554 25 124 24.5523 124 24C124 23.4477 123.554 23 123.005 23Z" fill="#FFDC00"/>
<g id="Group_2">
<g id="Group_3">
<path id="Vector_18" d="M19.5871 50.6674L19 54.2006L24.2065 67L27 65.5486L24.2811 53.5711L23.8903 49L19.5871 50.6674Z" fill="#A0616A"/>
<path id="Vector_19" d="M24.5646 31.1837C24.5646 31.1837 22.0577 29.8552 20.1125 34.3438C18.1672 38.8323 18.4081 48.6767 18.4081 48.6767C18.4081 48.6767 17.6998 49.4145 18.1494 49.9311C18.5991 50.4476 19.0183 51.2674 18.5596 52.2123C18.3178 52.7104 17.7584 53.6847 18.6746 53.9615C19.5908 54.2383 23.8765 52.9307 23.8765 52.9307C23.8765 52.9307 25.4791 52.1454 24.5685 51.6165C23.6579 51.0876 24.9404 47.8883 24.9404 47.8883L26 38.6464L24.5646 31.1837Z" fill="#FFDC00"/>
<path id="Vector_20" d="M26.9419 71.1049C27.9967 70.777 28.3969 69.0117 27.8357 67.1619C27.2746 65.3122 25.9646 64.0785 24.9099 64.4063C23.8551 64.7342 23.4549 66.4995 24.016 68.3493C24.5772 70.199 25.8871 71.4328 26.9419 71.1049Z" fill="#A0616A"/>
</g>
<g id="Group_4">
<path id="Vector_21" d="M52.5433 125L55 124.306L53.626 114L50 115.025L52.5433 125Z" fill="#A0616A"/>
<path id="Vector_22" d="M61.6456 123.243C61.7638 123.35 61.9256 123.753 61.9684 123.901C62.0999 124.359 61.8091 124.829 61.3189 124.952L53.22 126.98C52.8855 127.064 52.5417 126.879 52.452 126.567L52.3615 126.252C52.3615 126.252 51.6889 125.407 52.1786 124.034C52.1786 124.034 53.4662 124.69 54.5871 122.877L54.8193 122L58.731 123.413L60.6034 123.168C61.013 123.114 61.3495 122.973 61.6456 123.243H61.6456Z" fill="#2F2E41"/>
</g>
<g id="Group_5">
<path id="Vector_23" d="M28.0006 125L30.7107 125L32 115L28 115.001L28.0006 125Z" fill="#A0616A"/>
<path id="Vector_24" d="M36.8716 125.223C36.9557 125.373 37 125.856 37 126.031C37 126.566 36.5899 127 36.0839 127H27.7253C27.3802 127 27.1004 126.704 27.1004 126.339V125.971C27.1004 125.971 26.6869 124.864 27.5382 123.499C27.5382 123.499 28.5963 124.567 30.1773 122.894L30.6435 122L34.0184 124.613L35.889 124.856C36.2983 124.91 36.6611 124.848 36.8716 125.223Z" fill="#2F2E41"/>
</g>
<path id="Vector_25" d="M45.5143 64.0002L52.5861 94.3033L56 118.788L50.6352 119.515L35.7603 77.8184L32.3463 119.515L26.25 120C26.25 120 21.373 70.5457 23.5676 64.4851L45.5143 64.0002Z" fill="#2F2E41"/>
<g id="Group_6">
<path id="Vector_26" d="M53.6003 28L56.1137 25.4929L59 12.3748L55.8032 12L51.2762 23.0908L49 26.9674L53.6003 28Z" fill="#A0616A"/>
<path id="Vector_27" d="M38 41.484C38 41.484 40.2387 45.7073 44.3939 43.2105C48.5491 40.7138 52.9437 30.8838 52.9437 30.8838C52.9437 30.8838 53.8212 28.3849 54.7391 27.8893C55.2229 27.628 56.4677 27.3463 55.8146 26.5599C55.1615 25.7734 50.4648 24.0541 50.4648 24.0541C50.4648 24.0541 48.6301 23.7205 49.1407 24.7104C49.6513 25.7003 47.9742 25.0871 48.1435 26.1348C48.3129 27.1824 46.781 27.5435 46.781 27.5435L38 41.484H38Z" fill="#FFDC00"/>
<path id="Vector_28" d="M59.8485 10.8374C60.416 8.98961 60.0207 7.22678 58.9655 6.90005C57.9104 6.57332 56.595 7.8064 56.0275 9.65422C55.46 11.502 55.8554 13.2649 56.9105 13.5916C57.9656 13.9183 59.281 12.6853 59.8485 10.8374Z" fill="#A0616A"/>
</g>
<path id="Vector_29" d="M38.3465 27H31.588L31.3145 29.0708C31.3145 29.0708 22.7908 31.3487 23.0039 32.5912C23.217 33.8336 24.4956 54.5416 24.4956 54.5416L23.4301 64.8956C23.4301 64.8956 42.6083 72.7646 45.5916 63.446L44.1 52.6779C44.1 52.6779 47.7225 34.2478 46.8701 33.4195C46.0178 32.5912 38.9858 29.2779 38.9858 29.2779L38.3465 27L38.3465 27Z" fill="#FFDC00"/>
<path id="Vector_30" d="M34 27C37.3137 27 40 24.3137 40 21C40 17.6863 37.3137 15 34 15C30.6863 15 28 17.6863 28 21C28 24.3137 30.6863 27 34 27Z" fill="#A0616A"/>
<path id="Vector_31" d="M38.5732 18.5618C39.3127 18.4977 40.0523 18.4337 40.7918 18.3696C40.5376 18.2501 40.2728 18.1223 40.1035 17.8942C39.9341 17.6661 39.8991 17.3058 40.1037 17.1104C40.3428 16.8821 40.7387 17.003 41 17.2042C40.8561 16.4343 40.4078 15.729 39.7787 15.2831C39.0103 14.7383 37.1094 15.3879 36.183 15.2628C35.1142 15.1185 34.9808 14.1847 33.9119 14.0404C33.5091 13.986 33.0557 13.945 32.7389 14.2058C32.3875 14.4951 32.3481 15.0419 32.0381 15.3772C31.5955 15.8558 30.8369 15.7146 30.207 15.8493C29.3149 16.04 28.6423 16.8417 28.3317 17.7197C28.0211 18.5977 28.0097 19.5527 28.0018 20.4866C27.9929 21.5332 27.9897 22.7449 28.7284 23.4678C29.1784 23.9082 30.4044 25.4192 30.5369 26.0423C30.631 26.4848 34.4667 27.0237 35.2981 26.9992L38.1317 26.0423C38.4102 24.7857 37.9495 22.2998 37.2874 21.2043C37.5054 21.4994 38.5138 22.3879 38.6679 22.0531C38.822 21.7184 38.7521 20.6691 38.944 20.3555C39.1862 19.9598 38.1189 18.6012 38.5732 18.5618V18.5618Z" fill="#2F2E41"/>
</g>
</g>
</g>
</g>
</g>
<defs>
<clipPath id="clip0_0_1">
<rect width="161" height="128" fill="white"/>
</clipPath>
</defs>
</svg>
