<svg width="111" height="99" viewBox="0 0 111 99" fill="none" xmlns="http://www.w3.org/2000/svg">
<rect width="111" height="99" fill="#F5F5F5"/>
<g id="Tejamkor yechim">
<rect width="1440" height="4225" transform="translate(-1152 -1175)" fill="white"/>
<g id="Group 22">
<g id="Group 6">
<rect id="Rectangle 24" x="-228" y="-166" width="363" height="289" rx="12" fill="#FCFCFC"/>
<g id="undraw_receipt_re_fre3 1" clip-path="url(#clip0_0_1)">
<path id="Vector" d="M0.61791 22.6741C0.401908 22.735 0.218822 22.8793 0.108817 23.0754C-0.00118745 23.2715 -0.0291308 23.5033 0.0311186 23.72L14.1798 74.3805C14.2405 74.5971 14.3845 74.7806 14.58 74.8909C14.7756 75.0012 15.0068 75.0292 15.223 74.9688L67.3821 60.3259C67.5981 60.265 67.7812 60.1207 67.8912 59.9246C68.0012 59.7285 68.0291 59.4967 67.9689 59.28L53.8202 8.61951C53.7595 8.40295 53.6155 8.21939 53.42 8.1091C53.2244 7.99881 52.9932 7.97079 52.777 8.0312L0.61791 22.6741Z" fill="#E6E6E6"/>
<path id="Vector_2" d="M15.6391 72L66 58.0806L52.3609 10L2 23.9194L15.6391 72Z" fill="white"/>
<path id="Vector_3" d="M9.37373 30.7404C9.04225 30.8388 8.90559 31.4225 9.06909 32.0416C9.2326 32.6606 9.63532 33.0842 9.9668 32.9858L32.6263 26.2596C32.9578 26.1612 33.0944 25.5774 32.9309 24.9584C32.7674 24.3394 32.3647 23.9158 32.0332 24.0142L9.37373 30.7404Z" fill="#E6E6E6"/>
<path id="Vector_4" d="M11.3737 37.7404C11.0423 37.8388 10.9056 38.4225 11.0691 39.0416C11.2326 39.6606 11.6353 40.0842 11.9668 39.9858L34.6263 33.2596C34.9577 33.1612 35.0944 32.5774 34.9309 31.9584C34.7674 31.3394 34.3647 30.9158 34.0332 31.0142L11.3737 37.7404Z" fill="#E6E6E6"/>
<path id="Vector_5" d="M12.3737 43.7404C12.0423 43.8388 11.9056 44.4225 12.0691 45.0416C12.2326 45.6606 12.6353 46.0842 12.9668 45.9858L35.6263 39.2596C35.9577 39.1612 36.0944 38.5775 35.9309 37.9584C35.7674 37.3394 35.3647 36.9158 35.0332 37.0142L12.3737 43.7404Z" fill="#E6E6E6"/>
<path id="Vector_6" d="M14.3737 50.7404C14.0423 50.8388 13.9056 51.4225 14.0691 52.0416C14.2326 52.6606 14.6353 53.0842 14.9668 52.9858L37.6263 46.2596C37.9577 46.1612 38.0944 45.5775 37.9309 44.9584C37.7674 44.3394 37.3647 43.9158 37.0332 44.0142L14.3737 50.7404Z" fill="#E6E6E6"/>
<path id="Vector_7" d="M43.7498 21.087C43.6201 21.1214 43.4987 21.1798 43.3927 21.2588C43.2866 21.3378 43.1981 21.4359 43.1319 21.5474C43.0658 21.659 43.0235 21.7819 43.0074 21.909C42.9912 22.0361 43.0016 22.165 43.038 22.2883C43.0743 22.4117 43.1358 22.527 43.2191 22.6276C43.3023 22.7283 43.4056 22.8124 43.5231 22.8751C43.6405 22.9379 43.7698 22.9779 43.9036 22.9931C44.0374 23.0083 44.173 22.9983 44.3027 22.9636L48.2513 21.9127C48.5131 21.843 48.7351 21.6773 48.8683 21.4521C49.0016 21.2269 49.0353 20.9605 48.962 20.7117C48.8887 20.4628 48.7144 20.2518 48.4774 20.1251C48.2405 19.9984 47.9603 19.9664 47.6985 20.0361L43.7498 21.087Z" fill="#E6E6E6"/>
<path id="Vector_8" d="M44.7498 27.087C44.6201 27.1214 44.4987 27.1798 44.3927 27.2588C44.2867 27.3378 44.1981 27.4359 44.1319 27.5474C44.0658 27.659 44.0235 27.7819 44.0074 27.909C43.9912 28.0361 44.0016 28.165 44.038 28.2883C44.0743 28.4117 44.1358 28.527 44.2191 28.6276C44.3023 28.7283 44.4056 28.8124 44.5231 28.8751C44.6405 28.9379 44.7698 28.978 44.9036 28.9931C45.0374 29.0083 45.173 28.9983 45.3027 28.9636L49.2513 27.9127C49.5131 27.843 49.7351 27.6773 49.8683 27.4521C50.0016 27.2269 50.0353 26.9605 49.962 26.7117C49.8887 26.4628 49.7144 26.2518 49.4774 26.1251C49.2405 25.9984 48.9603 25.9664 48.6985 26.0361L44.7498 27.087Z" fill="#E6E6E6"/>
<path id="Vector_9" d="M46.7489 33.0871C46.6192 33.1216 46.4979 33.1801 46.392 33.2591C46.2862 33.3381 46.1977 33.4362 46.1317 33.5478C46.0657 33.6593 46.0234 33.7821 46.0073 33.9092C45.9913 34.0362 46.0017 34.165 46.038 34.2883C46.0743 34.4115 46.1358 34.5267 46.2189 34.6274C46.3021 34.728 46.4053 34.8121 46.5226 34.8749C46.64 34.9376 46.7692 34.9777 46.9029 34.993C47.0366 35.0083 47.1721 34.9984 47.3018 34.9639L51.2511 33.9129C51.513 33.8432 51.735 33.6775 51.8683 33.4522C52.0016 33.227 52.0353 32.9606 51.962 32.7117C51.8887 32.4629 51.7144 32.2519 51.4773 32.1251C51.2403 31.9984 50.9601 31.9664 50.6982 32.0361L46.7489 33.0871Z" fill="#E6E6E6"/>
<path id="Vector_10" d="M48.748 40.087C48.4863 40.157 48.2646 40.3228 48.1314 40.548C47.9983 40.7732 47.9647 41.0394 48.038 41.2881C48.1113 41.5369 48.2855 41.7478 48.5223 41.8746C48.7592 42.0013 49.0393 42.0336 49.3011 41.9642L53.252 40.913C53.5137 40.843 53.7354 40.6772 53.8686 40.452C54.0017 40.2268 54.0353 39.9606 53.962 39.7119C53.8887 39.4631 53.7145 39.2522 53.4777 39.1254C53.2408 38.9987 52.9607 38.9664 52.6989 39.0358L48.748 40.087Z" fill="#E6E6E6"/>
<path id="Vector_11" d="M50.9998 51.4494C50.8268 51.4952 50.6649 51.573 50.5236 51.6784C50.3822 51.7837 50.2641 51.9145 50.1759 52.0632C50.0878 52.212 50.0313 52.3758 50.0098 52.5453C49.9883 52.7148 50.0022 52.8867 50.0506 53.0511C50.0991 53.2155 50.1811 53.3693 50.2921 53.5035C50.4031 53.6378 50.5408 53.7499 50.6974 53.8335C50.854 53.9171 51.0264 53.9706 51.2048 53.9908C51.3832 54.0111 51.564 53.9977 51.7369 53.9515L57.0017 52.5503C57.3508 52.4573 57.6467 52.2364 57.8245 51.9361C58.0022 51.6358 58.0471 51.2807 57.9494 50.9489C57.8516 50.6171 57.6192 50.3358 57.3033 50.1668C56.9873 49.9979 56.6137 49.9552 56.2646 50.0481L50.9998 51.4494Z" fill="#FFDC00"/>
<path id="Vector_12" d="M56.4535 45.7079L16 57L16.1001 57.3563L56.5536 46.0642L56.4535 45.7079Z" fill="#E6E6E6"/>
<path id="Vector_13" d="M97 93.2332L93.6782 94L89 82.1316L93.9026 81L97 93.2332Z" fill="#A0616A"/>
<path id="Vector_14" d="M88.1304 99L88.1095 98.9042C87.865 97.7757 88.0336 96.5856 88.5785 95.595C89.1233 94.6044 89.9999 93.8942 91.0158 93.6202L97.0525 92L98 96.3511L88.1304 99Z" fill="#2F2E41"/>
<path id="Vector_15" d="M81.9994 96L78.6117 95.9998L77 83L82 83.0002L81.9994 96Z" fill="#A0616A"/>
<path id="Vector_16" d="M82.9998 99L72 98.9996V98.9115C72 97.8741 72.4501 96.8792 73.2512 96.1456C74.0523 95.4121 75.1388 95 76.2718 95H76.272L83 95.0003L82.9998 99Z" fill="#2F2E41"/>
<path id="Vector_17" d="M77.1941 90.4382L74 52.4421L87.2226 50.0094L87.2748 50L91.1449 52.4832L89.7979 66.4667L96 88.2681L90.6448 89.6747L84.4328 69.4552L83.0112 63.3066L82.2826 71.2963L82.8235 91L77.1941 90.4382Z" fill="#2F2E41"/>
<path id="Vector_18" d="M74.0355 53.1191L74 53.0749L78.6403 18.7447L78.6464 18.6998L78.6791 18.6676C78.7475 18.6004 80.3733 17.0218 82.0456 17.0218C82.2874 17.0218 82.5172 17.0158 82.7377 17.0103C84.0174 16.9776 85.0283 16.9514 86.2297 18.1321C87.4537 19.3347 91.4474 23.7261 91.4474 29.7407C91.4474 35.5623 91.9869 53.6538 91.9924 53.8358L92 54.0913L91.7819 53.9519C91.7281 53.9179 86.3566 50.5573 81.8517 53.6813C80.4438 54.6577 79.1791 55 78.0977 55C75.5808 55 74.057 53.146 74.0355 53.1191Z" fill="#FFDC00"/>
<path id="Vector_19" d="M83.9581 14.2884C87.1103 12.5706 88.2664 8.62639 86.5403 5.47872C84.8143 2.33105 80.8597 1.17189 77.7075 2.88968C74.5554 4.60746 73.3992 8.55169 75.1253 11.6994C76.8513 14.847 80.8059 16.0062 83.9581 14.2884Z" fill="#A0616A"/>
<path id="Vector_20" d="M70.2362 61.4011C70.5371 61.1512 70.7833 60.8338 70.9573 60.4711C71.1314 60.1084 71.229 59.7092 71.2434 59.3017C71.2578 58.8942 71.1886 58.4882 71.0407 58.1124C70.8928 57.7367 70.6697 57.4002 70.3873 57.1267L74 48L69.2697 48.9324L66.5642 57.4564C66.1667 57.995 65.9675 58.6712 66.0043 59.3566C66.0412 60.0421 66.3116 60.6893 66.7642 61.1755C67.2168 61.6618 67.8202 61.9533 68.4601 61.9949C69.1001 62.0364 69.732 61.8251 70.2361 61.4011H70.2362Z" fill="#A0616A"/>
<path id="Vector_21" d="M67 54.1335L68.2551 51.5552C68.1775 51.5098 68.1136 51.4453 68.0697 51.3683C66.8971 49.3909 73.9799 32.9694 74.452 31.8802C74.38 31.2878 73.6365 25.0101 74.1801 22.894C74.8201 20.4031 76.1342 19.2421 78.574 19.0122C81.2647 18.7663 81.9906 22.3218 81.9975 22.3579L82 31.4984L78.912 42.0202L71.8695 56L67 54.1335Z" fill="#FFDC00"/>
<path id="Vector_22" d="M82.2925 11.1151C81.4852 11.2206 80.8763 10.3912 80.5938 9.62454C80.3114 8.85787 80.0962 7.96531 79.3943 7.55117C78.4354 6.98537 77.2086 7.66587 76.112 7.4792C74.8737 7.26839 74.0685 5.95055 74.0054 4.69093C73.9423 3.43131 74.4415 2.21983 74.9313 1.05847L75.1023 2.50177C75.0795 2.0126 75.182 1.52572 75.4001 1.0877C75.6181 0.649679 75.9445 0.275172 76.3479 0L76.1275 2.11783C76.2657 0.931367 77.5386 0.0120214 78.7028 0.257892L78.6681 1.51977C80.0984 1.34899 81.5411 1.17797 82.9757 1.30808C84.4102 1.43819 85.8547 1.89394 86.942 2.84259C88.5683 4.26163 89.1623 6.59824 88.9629 8.75242C88.7635 10.9066 87.8779 12.9303 86.9549 14.8852C86.7227 15.3771 86.4015 15.9321 85.863 15.9948C85.3792 16.0511 84.9364 15.6449 84.786 15.1798C84.6356 14.7146 84.709 14.2092 84.7991 13.7285C84.9352 13.0024 85.1067 12.2603 84.9788 11.5327C84.8508 10.8051 84.3296 10.0861 83.5991 9.99694C82.8687 9.90777 82.1213 10.7461 82.4725 11.3954L82.2925 11.1151Z" fill="#2F2E41"/>
</g>
</g>
</g>
</g>
<defs>
<clipPath id="clip0_0_1">
<rect width="111" height="99" fill="white"/>
</clipPath>
</defs>
</svg>
