<svg width="494" height="331" viewBox="0 0 494 331" fill="none" xmlns="http://www.w3.org/2000/svg">
<g clip-path="url(#clip0_1301_241)">
<path d="M363.736 0.706055H0.155273V233.329H363.736V0.706055Z" fill="#E6E6E6"/>
<path d="M353.34 29.8828H10.5518V118.561H353.34V29.8828Z" fill="white"/>
<path d="M168.309 42.6919H95.8174V46.8491H168.309V42.6919Z" fill="#E6E6E6"/>
<path d="M207.761 57.856H95.8174V62.0132H207.761V57.856Z" fill="#FFDC00"/>
<path d="M187.049 72.1431H95.8174V76.3003H187.049V72.1431Z" fill="#E6E6E6"/>
<path d="M149.077 86.376H95.8174V90.5332H149.077V86.376Z" fill="#E6E6E6"/>
<path d="M176.2 100.609H95.8174V104.766H176.2V100.609Z" fill="#E6E6E6"/>
<path d="M71.6529 41.2139H62.7764V50.0817H71.6529V41.2139Z" fill="#E6E6E6"/>
<path d="M71.6529 55.5005H62.7764V64.3683H71.6529V55.5005Z" fill="#FFDC00"/>
<path d="M71.6529 69.7876H62.7764V78.6554H71.6529V69.7876Z" fill="#E6E6E6"/>
<path d="M71.6529 84.0747H62.7764V92.9425H71.6529V84.0747Z" fill="#E6E6E6"/>
<path d="M71.6529 98.3618H62.7764V107.23H71.6529V98.3618Z" fill="#E6E6E6"/>
<path d="M305.403 61.4126H275.814V90.9719H305.403V61.4126Z" fill="#E6E6E6"/>
<path d="M353.34 130.877H10.5518V219.555H353.34V130.877Z" fill="white"/>
<path d="M86.94 138.758H78.0635V147.626H86.94V138.758Z" fill="#E6E6E6"/>
<path d="M71.6529 138.758H62.7764V147.626H71.6529V138.758Z" fill="#FFDC00"/>
<path d="M213.28 158.15C210.575 153.574 206.821 149.705 202.327 146.861C197.833 144.017 192.728 142.28 187.431 141.791C182.134 141.302 176.796 142.076 171.857 144.049C166.917 146.023 162.517 149.139 159.019 153.143L156.855 151.254C160.653 146.908 165.428 143.525 170.789 141.382C176.151 139.239 181.945 138.398 187.695 138.929C193.445 139.459 198.986 141.346 203.864 144.433C208.742 147.521 212.816 151.721 215.752 156.688L213.28 158.15Z" fill="#E6E6E6"/>
<path d="M214.634 195.536L212.25 193.935C215.781 188.674 217.751 182.523 217.934 176.191C218.116 169.86 216.503 163.605 213.28 158.15L215.752 156.688C219.251 162.61 221.003 169.4 220.805 176.274C220.607 183.147 218.468 189.825 214.634 195.536Z" fill="#FFDC00"/>
<path d="M157.155 199.535C151.217 192.91 147.908 184.344 147.853 175.451C147.798 166.558 151 157.953 156.855 151.254L159.018 153.143C153.624 159.313 150.675 167.241 150.726 175.434C150.777 183.626 153.824 191.517 159.294 197.62L157.155 199.535Z" fill="#FFDC00"/>
<path d="M184.336 211.674C179.206 211.67 174.135 210.587 169.451 208.496C164.768 206.404 160.578 203.351 157.154 199.535L159.294 197.62C162.71 201.432 166.952 204.414 171.697 206.338C176.443 208.263 181.565 209.078 186.674 208.723C191.783 208.367 196.743 206.85 201.176 204.287C205.608 201.724 209.396 198.184 212.249 193.935L214.634 195.536C211.298 200.505 206.789 204.577 201.505 207.391C196.221 210.206 190.324 211.676 184.336 211.674Z" fill="#FFDC00"/>
<path d="M305.403 157.973H275.814V187.532H305.403V157.973Z" fill="#E6E6E6"/>
<path d="M91.1325 177.187H61.5439V206.746H91.1325V177.187Z" fill="#E6E6E6"/>
<path d="M363.581 0.5H0V15.931H363.581V0.5Z" fill="#FFDC00"/>
<path d="M11.4781 11.2493C13.0592 11.2493 14.3409 9.96885 14.3409 8.38931C14.3409 6.80977 13.0592 5.5293 11.4781 5.5293C9.89697 5.5293 8.61523 6.80977 8.61523 8.38931C8.61523 9.96885 9.89697 11.2493 11.4781 11.2493Z" fill="white"/>
<path d="M22.3453 11.2493C23.9264 11.2493 25.2081 9.96885 25.2081 8.38931C25.2081 6.80977 23.9264 5.5293 22.3453 5.5293C20.7642 5.5293 19.4824 6.80977 19.4824 8.38931C19.4824 9.96885 20.7642 11.2493 22.3453 11.2493Z" fill="white"/>
<path d="M33.2115 11.2493C34.7926 11.2493 36.0743 9.96885 36.0743 8.38931C36.0743 6.80977 34.7926 5.5293 33.2115 5.5293C31.6304 5.5293 30.3486 6.80977 30.3486 8.38931C30.3486 9.96885 31.6304 11.2493 33.2115 11.2493Z" fill="white"/>
<path d="M422.282 322.488H429.642L433.144 294.125L422.28 294.126L422.282 322.488Z" fill="#FFB8B8"/>
<path d="M420.403 320.087L434.899 320.086H434.899C437.349 320.087 439.699 321.059 441.431 322.789C443.164 324.52 444.137 326.867 444.137 329.315V329.615L420.404 329.616L420.403 320.087Z" fill="#2F2E41"/>
<path d="M403.95 294.642L409.382 299.605L431.127 281.036L423.11 273.712L403.95 294.642Z" fill="#FFB8B8"/>
<path d="M404.186 291.605L414.883 301.378L414.883 301.378C416.691 303.03 417.768 305.332 417.877 307.777C417.986 310.222 417.119 312.61 415.465 314.416L415.263 314.638L397.749 298.637L404.186 291.605Z" fill="#2F2E41"/>
<path d="M433.85 222.886L431.764 264.568L436.98 309.897L421.333 311.981L411.424 254.669L408.295 215.592L433.85 222.886Z" fill="#2F2E41"/>
<path d="M458.363 207.776C458.363 207.776 464.621 248.937 451.583 262.484C438.544 276.031 420.812 299.998 420.812 299.998L408.295 284.367L440.109 250.5L433.85 227.575L408.295 215.592L412.467 186.936L450.018 186.415L458.363 207.776Z" fill="#2F2E41"/>
<path d="M429.644 112.429C436.698 112.429 442.417 106.716 442.417 99.6691C442.417 92.6217 436.698 86.9087 429.644 86.9087C422.59 86.9087 416.871 92.6217 416.871 99.6691C416.871 106.716 422.59 112.429 429.644 112.429Z" fill="#FFB8B8"/>
<path d="M440.238 117.805L442.195 120.766L447.411 135.355L443.238 192.146L418.726 192.667L415.597 127.539L422.152 119.353L440.238 117.805Z" fill="#CCCCCC"/>
<path d="M405.687 129.102L401.515 128.581C401.515 128.581 400.471 129.102 399.95 132.749C399.428 136.396 393.17 168.7 393.17 168.7L401.515 208.298L410.902 195.793L405.165 173.91L410.902 152.027L405.687 129.102Z" fill="#2F2E41"/>
<path d="M458.884 128.581H462.013L469.837 170.784L462.535 203.608L455.234 191.625L457.32 178.599L456.277 167.137L452.626 160.363L458.884 128.581Z" fill="#2F2E41"/>
<path d="M437.192 99.6691L434.87 99.0891C434.87 99.0891 433.128 89.2288 429.064 90.3888C424.999 91.5489 414.549 92.7089 414.549 88.0687C414.549 83.4286 424.419 79.3685 430.225 79.9485C436.031 80.5285 443.446 82.4527 445.32 90.9688C448.325 104.621 439.121 108.069 439.121 108.069L439.274 107.572C439.699 106.192 439.73 104.72 439.362 103.324C438.994 101.927 438.242 100.661 437.192 99.6691Z" fill="#2F2E41"/>
<path d="M402.036 128.581L418.725 121.808L422.637 118.942L434.372 170.784L442.195 147.338L439.848 117.379L461.492 128.581L454.19 164.01L453.147 177.557L456.276 188.499C456.276 188.499 467.229 196.314 463.578 204.65C459.927 212.987 455.755 213.508 455.755 213.508C455.755 213.508 438.022 196.835 436.979 192.667C435.936 188.499 434.372 181.204 434.372 181.204C434.372 181.204 425.505 214.55 415.075 214.029C404.644 213.508 404.644 202.566 404.644 202.566L407.252 191.104L411.424 179.12L409.338 159.321L402.036 128.581Z" fill="#2F2E41"/>
<path d="M493.484 330.5H354.991C354.854 330.5 354.723 330.445 354.626 330.349C354.529 330.252 354.475 330.12 354.475 329.984C354.475 329.847 354.529 329.715 354.626 329.618C354.723 329.522 354.854 329.467 354.991 329.467H493.484C493.621 329.467 493.752 329.522 493.849 329.618C493.946 329.715 494 329.847 494 329.984C494 330.12 493.946 330.252 493.849 330.349C493.752 330.445 493.621 330.5 493.484 330.5Z" fill="#CCCCCC"/>
</g>
<defs>
<clipPath id="clip0_1301_241">
<rect width="494" height="330" fill="white" transform="translate(0 0.5)"/>
</clipPath>
</defs>
</svg>
