<svg width="18" height="18" viewBox="0 0 18 18" fill="none" xmlns="http://www.w3.org/2000/svg">
<g clip-path="url(#clip0_366_1597)">
<path d="M4.27406 5.03285C3.98156 5.32535 3.98156 5.79785 4.27406 6.09035L7.18406 9.00035L4.27406 11.9104C3.98156 12.2029 3.98156 12.6754 4.27406 12.9679C4.56656 13.2604 5.03906 13.2604 5.33156 12.9679L8.77406 9.52535C9.06656 9.23285 9.06656 8.76035 8.77406 8.46785L5.33906 5.03285C5.04656 4.74035 4.56656 4.74035 4.27406 5.03285Z" fill="#595959"/>
<path d="M9.21742 5.03282C8.92492 5.32532 8.92492 5.79782 9.21742 6.09032L12.1274 9.00032L9.21742 11.9103C8.92492 12.2028 8.92492 12.6753 9.21742 12.9678C9.50992 13.2603 9.98242 13.2603 10.2749 12.9678L13.7174 9.52532C14.0099 9.23282 14.0099 8.76032 13.7174 8.46782L10.2749 5.02532C9.98992 4.74032 9.50992 4.74032 9.21742 5.03282Z" fill="#595959"/>
</g>
<defs>
<clipPath id="clip0_366_1597">
<rect width="18" height="18" fill="white"/>
</clipPath>
</defs>
</svg>
