<svg width="18" height="18" viewBox="0 0 18 18" fill="none" xmlns="http://www.w3.org/2000/svg">
<g clip-path="url(#clip0_366_1594)">
<path d="M7.50001 14.25V10.5H10.5V14.25C10.5 14.6625 10.8375 15 11.25 15H13.5C13.9125 15 14.25 14.6625 14.25 14.25V9.00004H15.525C15.87 9.00004 16.035 8.57254 15.7725 8.34754L9.50251 2.70004C9.21751 2.44504 8.78251 2.44504 8.49751 2.70004L2.22751 8.34754C1.97251 8.57254 2.13001 9.00004 2.47501 9.00004H3.75001V14.25C3.75001 14.6625 4.08751 15 4.50001 15H6.75001C7.16251 15 7.50001 14.6625 7.50001 14.25Z" fill="#595959"/>
</g>
<defs>
<clipPath id="clip0_366_1594">
<rect width="18" height="18" fill="white"/>
</clipPath>
</defs>
</svg>
