<svg width="32" height="32" viewBox="0 0 32 32" fill="none" xmlns="http://www.w3.org/2000/svg">
<rect width="32" height="32" fill="#F5F5F5"/>
<g id="Tejamkor yechim">
<rect width="1440" height="4225" transform="translate(-951 -1472)" fill="white"/>
<g id="Group 35">
<path id="Rectangle 32" d="M-24 -52C-24 -66.3594 -12.3594 -78 2 -78H314C328.359 -78 340 -66.3594 340 -52V279C340 293.359 328.359 305 314 305H2.00001C-12.3594 305 -24 293.359 -24 279V-52Z" fill="#FCFCFC"/>
<g id="Group 29">
<g id="Frame" clip-path="url(#clip0_0_1)">
<path id="Vector" d="M22.2663 10.6667C22.0009 9.91365 21.5163 9.25729 20.8747 8.78205C20.2331 8.30681 19.464 8.03444 18.6663 8H13.333C12.2721 8 11.2547 8.42143 10.5046 9.17157C9.75444 9.92172 9.33301 10.9391 9.33301 12C9.33301 13.0609 9.75444 14.0783 10.5046 14.8284C11.2547 15.5786 12.2721 16 13.333 16H18.6663C19.7272 16 20.7446 16.4214 21.4948 17.1716C22.2449 17.9217 22.6663 18.9391 22.6663 20C22.6663 21.0609 22.2449 22.0783 21.4948 22.8284C20.7446 23.5786 19.7272 24 18.6663 24H13.333C12.5353 23.9656 11.7662 23.6932 11.1246 23.218C10.4831 22.7427 9.9984 22.0863 9.73301 21.3333" stroke="#595959" stroke-width="2.75" stroke-linecap="round" stroke-linejoin="round"/>
<path id="Vector_2" d="M16 4V8M16 24V28" stroke="#595959" stroke-width="2.75" stroke-linecap="round" stroke-linejoin="round"/>
</g>
</g>
</g>
</g>
<defs>
<clipPath id="clip0_0_1">
<rect width="32" height="32" fill="white"/>
</clipPath>
</defs>
</svg>
